<?xml version="1.0" encoding="UTF-8" standalone="no"?>
<!DOCTYPE svg PUBLIC "-//W3C//DTD SVG 1.1//EN"
 "http://www.w3.org/Graphics/SVG/1.1/DTD/svg11.dtd">
<!-- Generated by graphviz version 2.38.0 (20140413.2041)
 -->
<!-- Title: %3 Pages: 1 -->
<svg width="401pt" height="408pt"
 viewBox="0.00 0.00 401.00 408.00" xmlns="http://www.w3.org/2000/svg" xmlns:xlink="http://www.w3.org/1999/xlink">
<g id="graph0" class="graph" transform="scale(1 1) rotate(0) translate(4 404)">
<title>%3</title>
<polygon fill="white" stroke="none" points="-4,4 -4,-404 397,-404 397,4 -4,4"/>
<text text-anchor="middle" x="196.5" y="-6.8" font-family="Times,serif" font-size="14.00">Directed Cyclic Graphs</text>
<g id="clust1" class="cluster"><title>clusterTwoDigraph</title>
<polygon fill="none" stroke="black" points="8,-246 8,-392 91,-392 91,-246 8,-246"/>
<text text-anchor="middle" x="49.5" y="-376.8" font-family="Times,serif" font-size="14.00">two digraph</text>
</g>
<g id="clust2" class="cluster"><title>clusterThreeDigraph</title>
<polygon fill="none" stroke="black" points="99,-174 99,-392 189,-392 189,-174 99,-174"/>
<text text-anchor="middle" x="144" y="-376.8" font-family="Times,serif" font-size="14.00">three digraph</text>
</g>
<g id="clust3" class="cluster"><title>clusterFourDigraph</title>
<polygon fill="none" stroke="black" points="197,-102 197,-392 287,-392 287,-102 197,-102"/>
<text text-anchor="middle" x="242" y="-376.8" font-family="Times,serif" font-size="14.00">four digraph</text>
</g>
<g id="clust4" class="cluster"><title>clusterFiveDigraph</title>
<polygon fill="none" stroke="black" points="295,-30 295,-392 385,-392 385,-30 295,-30"/>
<text text-anchor="middle" x="340" y="-376.8" font-family="Times,serif" font-size="14.00">five digraph</text>
</g>
<!-- n200 -->
<g id="node1" class="node"><title>n200</title>
<ellipse fill="none" stroke="black" cx="49" cy="-344" rx="27" ry="18"/>
<text text-anchor="middle" x="49" y="-339.8" font-family="Times,serif" font-size="14.00">0</text>
</g>
<!-- n201 -->
<g id="node2" class="node"><title>n201</title>
<ellipse fill="none" stroke="black" cx="49" cy="-272" rx="27" ry="18"/>
<text text-anchor="middle" x="49" y="-267.8" font-family="Times,serif" font-size="14.00">1</text>
</g>
<!-- n200&#45;&gt;n201 -->
<g id="edge1" class="edge"><title>n200&#45;&gt;n201</title>
<path fill="none" stroke="black" d="M43.1601,-326.411C42.2975,-318.507 42.0481,-308.852 42.4119,-299.935"/>
<polygon fill="black" stroke="black" points="45.9033,-300.179 43.1206,-289.956 38.9209,-299.683 45.9033,-300.179"/>
</g>
<!-- n201&#45;&gt;n200 -->
<g id="edge2" class="edge"><title>n201&#45;&gt;n200</title>
<path fill="none" stroke="black" stroke-dasharray="5,2" d="M54.8794,-289.956C55.7139,-297.827 55.9485,-307.374 55.5831,-316.187"/>
<polygon fill="black" stroke="black" points="52.0742,-316.184 54.8399,-326.411 59.0558,-316.691 52.0742,-316.184"/>
</g>
<!-- n500 -->
<g id="node3" class="node"><title>n500</title>
<ellipse fill="none" stroke="black" cx="134" cy="-344" rx="27" ry="18"/>
<text text-anchor="middle" x="134" y="-339.8" font-family="Times,serif" font-size="14.00">0</text>
</g>
<!-- n501 -->
<g id="node4" class="node"><title>n501</title>
<ellipse fill="none" stroke="black" cx="134" cy="-272" rx="27" ry="18"/>
<text text-anchor="middle" x="134" y="-267.8" font-family="Times,serif" font-size="14.00">1</text>
</g>
<!-- n500&#45;&gt;n501 -->
<g id="edge3" class="edge"><title>n500&#45;&gt;n501</title>
<path fill="none" stroke="black" d="M134,-325.697C134,-317.983 134,-308.712 134,-300.112"/>
<polygon fill="black" stroke="black" points="137.5,-300.104 134,-290.104 130.5,-300.104 137.5,-300.104"/>
</g>
<!-- n502 -->
<g id="node5" class="node"><title>n502</title>
<ellipse fill="none" stroke="black" cx="144" cy="-200" rx="27" ry="18"/>
<text text-anchor="middle" x="144" y="-195.8" font-family="Times,serif" font-size="14.00">2</text>
</g>
<!-- n501&#45;&gt;n502 -->
<g id="edge4" class="edge"><title>n501&#45;&gt;n502</title>
<path fill="none" stroke="black" d="M136.421,-254.055C137.522,-246.346 138.853,-237.027 140.091,-228.364"/>
<polygon fill="black" stroke="black" points="143.583,-228.67 141.532,-218.275 136.653,-227.68 143.583,-228.67"/>
</g>
<!-- n502&#45;&gt;n500 -->
<g id="edge5" class="edge"><title>n502&#45;&gt;n500</title>
<path fill="none" stroke="black" stroke-dasharray="5,2" d="M155.57,-216.342C161.111,-224.649 167.149,-235.368 170,-246 175.064,-264.888 175.748,-271.308 170,-290 166.714,-300.685 160.46,-311.149 154.075,-319.919"/>
<polygon fill="black" stroke="black" points="151.116,-318.023 147.75,-328.069 156.646,-322.314 151.116,-318.023"/>
</g>
<!-- n803 -->
<g id="node6" class="node"><title>n803</title>
<ellipse fill="none" stroke="black" cx="232" cy="-200" rx="27" ry="18"/>
<text text-anchor="middle" x="232" y="-195.8" font-family="Times,serif" font-size="14.00">3</text>
</g>
<!-- n801 -->
<g id="node8" class="node"><title>n801</title>
<ellipse fill="none" stroke="black" cx="232" cy="-128" rx="27" ry="18"/>
<text text-anchor="middle" x="232" y="-123.8" font-family="Times,serif" font-size="14.00">1</text>
</g>
<!-- n803&#45;&gt;n801 -->
<g id="edge11" class="edge"><title>n803&#45;&gt;n801</title>
<path fill="none" stroke="black" d="M226.16,-182.411C225.297,-174.507 225.048,-164.852 225.412,-155.935"/>
<polygon fill="black" stroke="black" points="228.903,-156.179 226.121,-145.956 221.921,-155.683 228.903,-156.179"/>
</g>
<!-- n802 -->
<g id="node7" class="node"><title>n802</title>
<ellipse fill="none" stroke="black" cx="242" cy="-344" rx="27" ry="18"/>
<text text-anchor="middle" x="242" y="-339.8" font-family="Times,serif" font-size="14.00">2</text>
</g>
<!-- n802&#45;&gt;n803 -->
<g id="edge10" class="edge"><title>n802&#45;&gt;n803</title>
<path fill="none" stroke="black" d="M231.762,-327.017C225.875,-316.858 219.058,-303.178 216,-290 211.579,-270.951 212.676,-265.271 216,-246 217.065,-239.823 218.897,-233.371 220.949,-227.343"/>
<polygon fill="black" stroke="black" points="224.32,-228.319 224.514,-217.726 217.756,-225.886 224.32,-228.319"/>
</g>
<!-- n800 -->
<g id="node9" class="node"><title>n800</title>
<ellipse fill="none" stroke="black" cx="252" cy="-272" rx="27" ry="18"/>
<text text-anchor="middle" x="252" y="-267.8" font-family="Times,serif" font-size="14.00">0</text>
</g>
<!-- n802&#45;&gt;n800 -->
<g id="edge9" class="edge"><title>n802&#45;&gt;n800</title>
<path fill="none" stroke="black" d="M244.421,-326.055C245.522,-318.346 246.853,-309.027 248.091,-300.364"/>
<polygon fill="black" stroke="black" points="251.583,-300.67 249.532,-290.275 244.653,-299.68 251.583,-300.67"/>
</g>
<!-- n801&#45;&gt;n803 -->
<g id="edge8" class="edge"><title>n801&#45;&gt;n803</title>
<path fill="none" stroke="black" stroke-dasharray="5,2" d="M237.879,-145.956C238.714,-153.827 238.948,-163.374 238.583,-172.187"/>
<polygon fill="black" stroke="black" points="235.074,-172.184 237.84,-182.411 242.056,-172.691 235.074,-172.184"/>
</g>
<!-- n800&#45;&gt;n803 -->
<g id="edge7" class="edge"><title>n800&#45;&gt;n803</title>
<path fill="none" stroke="black" d="M247.159,-254.055C244.898,-246.145 242.154,-236.54 239.625,-227.688"/>
<polygon fill="black" stroke="black" points="242.909,-226.443 236.797,-217.789 236.179,-228.366 242.909,-226.443"/>
</g>
<!-- n800&#45;&gt;n801 -->
<g id="edge6" class="edge"><title>n800&#45;&gt;n801</title>
<path fill="none" stroke="black" d="M259.596,-254.437C267.517,-234.773 277.548,-201.219 268,-174 265.113,-165.769 260.016,-157.925 254.551,-151.159"/>
<polygon fill="black" stroke="black" points="256.8,-148.416 247.568,-143.217 251.543,-153.038 256.8,-148.416"/>
</g>
<!-- n900 -->
<g id="node10" class="node"><title>n900</title>
<ellipse fill="none" stroke="black" cx="340" cy="-344" rx="27" ry="18"/>
<text text-anchor="middle" x="340" y="-339.8" font-family="Times,serif" font-size="14.00">0</text>
</g>
<!-- n902 -->
<g id="node12" class="node"><title>n902</title>
<ellipse fill="none" stroke="black" cx="330" cy="-272" rx="27" ry="18"/>
<text text-anchor="middle" x="330" y="-267.8" font-family="Times,serif" font-size="14.00">2</text>
</g>
<!-- n900&#45;&gt;n902 -->
<g id="edge12" class="edge"><title>n900&#45;&gt;n902</title>
<path fill="none" stroke="black" d="M337.579,-326.055C336.478,-318.346 335.147,-309.027 333.909,-300.364"/>
<polygon fill="black" stroke="black" points="337.347,-299.68 332.468,-290.275 330.417,-300.67 337.347,-299.68"/>
</g>
<!-- n901 -->
<g id="node11" class="node"><title>n901</title>
<ellipse fill="none" stroke="black" cx="350" cy="-128" rx="27" ry="18"/>
<text text-anchor="middle" x="350" y="-123.8" font-family="Times,serif" font-size="14.00">1</text>
</g>
<!-- n903 -->
<g id="node13" class="node"><title>n903</title>
<ellipse fill="none" stroke="black" cx="340" cy="-56" rx="27" ry="18"/>
<text text-anchor="middle" x="340" y="-51.8" font-family="Times,serif" font-size="14.00">3</text>
</g>
<!-- n901&#45;&gt;n903 -->
<g id="edge15" class="edge"><title>n901&#45;&gt;n903</title>
<path fill="none" stroke="black" d="M347.579,-110.055C346.478,-102.346 345.147,-93.0269 343.909,-84.3642"/>
<polygon fill="black" stroke="black" points="347.347,-83.6798 342.468,-74.2753 340.417,-84.6698 347.347,-83.6798"/>
</g>
<!-- n904 -->
<g id="node14" class="node"><title>n904</title>
<ellipse fill="none" stroke="black" cx="340" cy="-200" rx="27" ry="18"/>
<text text-anchor="middle" x="340" y="-195.8" font-family="Times,serif" font-size="14.00">4</text>
</g>
<!-- n902&#45;&gt;n904 -->
<g id="edge13" class="edge"><title>n902&#45;&gt;n904</title>
<path fill="none" stroke="black" d="M332.421,-254.055C333.522,-246.346 334.853,-237.027 336.091,-228.364"/>
<polygon fill="black" stroke="black" points="339.583,-228.67 337.532,-218.275 332.653,-227.68 339.583,-228.67"/>
</g>
<!-- n903&#45;&gt;n904 -->
<g id="edge16" class="edge"><title>n903&#45;&gt;n904</title>
<path fill="none" stroke="black" stroke-dasharray="5,2" d="M328.43,-72.3416C322.889,-80.6493 316.851,-91.3678 314,-102 308.936,-120.888 309.579,-126.951 314,-146 316.222,-155.575 320.428,-165.414 324.82,-173.976"/>
<polygon fill="black" stroke="black" points="321.895,-175.921 329.762,-183.017 328.037,-172.564 321.895,-175.921"/>
</g>
<!-- n904&#45;&gt;n900 -->
<g id="edge14" class="edge"><title>n904&#45;&gt;n900</title>
<path fill="none" stroke="black" stroke-dasharray="5,2" d="M351.57,-216.342C357.111,-224.649 363.149,-235.368 366,-246 371.064,-264.888 370.421,-270.951 366,-290 363.778,-299.575 359.572,-309.414 355.18,-317.976"/>
<polygon fill="black" stroke="black" points="351.963,-316.564 350.238,-327.017 358.105,-319.921 351.963,-316.564"/>
</g>
<!-- n904&#45;&gt;n901 -->
<g id="edge17" class="edge"><title>n904&#45;&gt;n901</title>
<path fill="none" stroke="black" d="M342.421,-182.055C343.522,-174.346 344.853,-165.027 346.091,-156.364"/>
<polygon fill="black" stroke="black" points="349.583,-156.67 347.532,-146.275 342.653,-155.68 349.583,-156.67"/>
</g>
</g>
</svg>
