<?xml version="1.0" encoding="UTF-8" standalone="no"?>
<!DOCTYPE svg PUBLIC "-//W3C//DTD SVG 1.1//EN"
 "http://www.w3.org/Graphics/SVG/1.1/DTD/svg11.dtd">
<!-- Generated by graphviz version 2.38.0 (20140413.2041)
 -->
<!-- Title: %3 Pages: 1 -->
<svg width="1072pt" height="408pt"
 viewBox="0.00 0.00 1072.00 408.00" xmlns="http://www.w3.org/2000/svg" xmlns:xlink="http://www.w3.org/1999/xlink">
<g id="graph0" class="graph" transform="scale(1 1) rotate(0) translate(4 404)">
<title>%3</title>
<polygon fill="white" stroke="none" points="-4,4 -4,-404 1068,-404 1068,4 -4,4"/>
<text text-anchor="middle" x="532" y="-6.8" font-family="Times,serif" font-size="14.00">Directed Acyclic Graphs</text>
<g id="clust1" class="cluster"><title>clusterSingleDigraph</title>
<polygon fill="none" stroke="black" points="8,-318 8,-392 103,-392 103,-318 8,-318"/>
<text text-anchor="middle" x="55.5" y="-376.8" font-family="Times,serif" font-size="14.00">single digraph</text>
</g>
<g id="clust2" class="cluster"><title>clusterTwoDigraphA</title>
<polygon fill="none" stroke="black" points="111,-246 111,-392 207,-392 207,-246 111,-246"/>
<text text-anchor="middle" x="159" y="-376.8" font-family="Times,serif" font-size="14.00">two digraph A</text>
</g>
<g id="clust3" class="cluster"><title>clusterTwoDigraphB</title>
<polygon fill="none" stroke="black" points="215,-246 215,-392 311,-392 311,-246 215,-246"/>
<text text-anchor="middle" x="263" y="-376.8" font-family="Times,serif" font-size="14.00">two digraph B</text>
</g>
<g id="clust4" class="cluster"><title>clusterThreeDigraphA</title>
<polygon fill="none" stroke="black" points="319,-174 319,-392 422,-392 422,-174 319,-174"/>
<text text-anchor="middle" x="370.5" y="-376.8" font-family="Times,serif" font-size="14.00">three digraph A</text>
</g>
<g id="clust5" class="cluster"><title>clusterThreeDigraphB</title>
<polygon fill="none" stroke="black" points="430,-174 430,-392 533,-392 533,-174 430,-174"/>
<text text-anchor="middle" x="481.5" y="-376.8" font-family="Times,serif" font-size="14.00">three digraph B</text>
</g>
<g id="clust6" class="cluster"><title>clusterThreeDigraphC</title>
<polygon fill="none" stroke="black" points="541,-174 541,-392 644,-392 644,-174 541,-174"/>
<text text-anchor="middle" x="592.5" y="-376.8" font-family="Times,serif" font-size="14.00">three digraph C</text>
</g>
<g id="clust7" class="cluster"><title>clusterFourDigraph</title>
<polygon fill="none" stroke="black" points="652,-318 652,-392 938,-392 938,-318 652,-318"/>
<text text-anchor="middle" x="795" y="-376.8" font-family="Times,serif" font-size="14.00">four digraph</text>
</g>
<g id="clust8" class="cluster"><title>clusterFiveDigraph</title>
<polygon fill="none" stroke="black" points="946,-30 946,-392 1056,-392 1056,-30 946,-30"/>
<text text-anchor="middle" x="1001" y="-376.8" font-family="Times,serif" font-size="14.00">five digraph</text>
</g>
<!-- n100 -->
<g id="node1" class="node"><title>n100</title>
<ellipse fill="none" stroke="black" cx="55" cy="-344" rx="27" ry="18"/>
<text text-anchor="middle" x="55" y="-339.8" font-family="Times,serif" font-size="14.00">0</text>
</g>
<!-- n200 -->
<g id="node2" class="node"><title>n200</title>
<ellipse fill="none" stroke="black" cx="159" cy="-344" rx="27" ry="18"/>
<text text-anchor="middle" x="159" y="-339.8" font-family="Times,serif" font-size="14.00">0</text>
</g>
<!-- n201 -->
<g id="node3" class="node"><title>n201</title>
<ellipse fill="none" stroke="black" cx="159" cy="-272" rx="27" ry="18"/>
<text text-anchor="middle" x="159" y="-267.8" font-family="Times,serif" font-size="14.00">1</text>
</g>
<!-- n200&#45;&gt;n201 -->
<g id="edge1" class="edge"><title>n200&#45;&gt;n201</title>
<path fill="none" stroke="black" d="M159,-325.697C159,-317.983 159,-308.712 159,-300.112"/>
<polygon fill="black" stroke="black" points="162.5,-300.104 159,-290.104 155.5,-300.104 162.5,-300.104"/>
</g>
<!-- n300 -->
<g id="node4" class="node"><title>n300</title>
<ellipse fill="none" stroke="black" cx="263" cy="-272" rx="27" ry="18"/>
<text text-anchor="middle" x="263" y="-267.8" font-family="Times,serif" font-size="14.00">0</text>
</g>
<!-- n301 -->
<g id="node5" class="node"><title>n301</title>
<ellipse fill="none" stroke="black" cx="263" cy="-344" rx="27" ry="18"/>
<text text-anchor="middle" x="263" y="-339.8" font-family="Times,serif" font-size="14.00">1</text>
</g>
<!-- n301&#45;&gt;n300 -->
<g id="edge2" class="edge"><title>n301&#45;&gt;n300</title>
<path fill="none" stroke="black" d="M263,-325.697C263,-317.983 263,-308.712 263,-300.112"/>
<polygon fill="black" stroke="black" points="266.5,-300.104 263,-290.104 259.5,-300.104 266.5,-300.104"/>
</g>
<!-- n500 -->
<g id="node6" class="node"><title>n500</title>
<ellipse fill="none" stroke="black" cx="360" cy="-344" rx="27" ry="18"/>
<text text-anchor="middle" x="360" y="-339.8" font-family="Times,serif" font-size="14.00">0</text>
</g>
<!-- n501 -->
<g id="node7" class="node"><title>n501</title>
<ellipse fill="none" stroke="black" cx="357" cy="-272" rx="27" ry="18"/>
<text text-anchor="middle" x="357" y="-267.8" font-family="Times,serif" font-size="14.00">1</text>
</g>
<!-- n500&#45;&gt;n501 -->
<g id="edge3" class="edge"><title>n500&#45;&gt;n501</title>
<path fill="none" stroke="black" d="M359.258,-325.697C358.928,-317.983 358.531,-308.712 358.162,-300.112"/>
<polygon fill="black" stroke="black" points="361.658,-299.945 357.733,-290.104 354.665,-300.245 361.658,-299.945"/>
</g>
<!-- n502 -->
<g id="node8" class="node"><title>n502</title>
<ellipse fill="none" stroke="black" cx="372" cy="-200" rx="27" ry="18"/>
<text text-anchor="middle" x="372" y="-195.8" font-family="Times,serif" font-size="14.00">2</text>
</g>
<!-- n500&#45;&gt;n502 -->
<g id="edge5" class="edge"><title>n500&#45;&gt;n502</title>
<path fill="none" stroke="black" d="M372.621,-327.877C380.153,-317.832 389.008,-303.965 393,-290 398.375,-271.198 397.235,-265.091 393,-246 391.53,-239.372 388.977,-232.563 386.146,-226.313"/>
<polygon fill="black" stroke="black" points="389.145,-224.479 381.586,-217.055 382.865,-227.572 389.145,-224.479"/>
</g>
<!-- n501&#45;&gt;n502 -->
<g id="edge4" class="edge"><title>n501&#45;&gt;n502</title>
<path fill="none" stroke="black" d="M360.631,-254.055C362.301,-246.261 364.324,-236.822 366.197,-228.079"/>
<polygon fill="black" stroke="black" points="369.625,-228.787 368.298,-218.275 362.78,-227.32 369.625,-228.787"/>
</g>
<!-- n600 -->
<g id="node9" class="node"><title>n600</title>
<ellipse fill="none" stroke="black" cx="475" cy="-344" rx="27" ry="18"/>
<text text-anchor="middle" x="475" y="-339.8" font-family="Times,serif" font-size="14.00">0</text>
</g>
<!-- n601 -->
<g id="node10" class="node"><title>n601</title>
<ellipse fill="none" stroke="black" cx="478" cy="-200" rx="27" ry="18"/>
<text text-anchor="middle" x="478" y="-195.8" font-family="Times,serif" font-size="14.00">1</text>
</g>
<!-- n600&#45;&gt;n601 -->
<g id="edge8" class="edge"><title>n600&#45;&gt;n601</title>
<path fill="none" stroke="black" d="M467.108,-326.731C462.574,-316.463 457.329,-302.771 455,-290 451.491,-270.762 450.423,-265.012 455,-246 456.656,-239.123 459.55,-232.114 462.738,-225.738"/>
<polygon fill="black" stroke="black" points="465.819,-227.399 467.51,-216.94 459.666,-224.062 465.819,-227.399"/>
</g>
<!-- n602 -->
<g id="node11" class="node"><title>n602</title>
<ellipse fill="none" stroke="black" cx="491" cy="-272" rx="27" ry="18"/>
<text text-anchor="middle" x="491" y="-267.8" font-family="Times,serif" font-size="14.00">2</text>
</g>
<!-- n600&#45;&gt;n602 -->
<g id="edge6" class="edge"><title>n600&#45;&gt;n602</title>
<path fill="none" stroke="black" d="M478.873,-326.055C480.655,-318.261 482.812,-308.822 484.811,-300.079"/>
<polygon fill="black" stroke="black" points="488.235,-300.804 487.051,-290.275 481.411,-299.244 488.235,-300.804"/>
</g>
<!-- n602&#45;&gt;n601 -->
<g id="edge7" class="edge"><title>n602&#45;&gt;n601</title>
<path fill="none" stroke="black" d="M487.853,-254.055C486.421,-246.346 484.691,-237.027 483.082,-228.364"/>
<polygon fill="black" stroke="black" points="486.475,-227.468 481.208,-218.275 479.593,-228.746 486.475,-227.468"/>
</g>
<!-- n700 -->
<g id="node12" class="node"><title>n700</title>
<ellipse fill="none" stroke="black" cx="589" cy="-200" rx="27" ry="18"/>
<text text-anchor="middle" x="589" y="-195.8" font-family="Times,serif" font-size="14.00">0</text>
</g>
<!-- n701 -->
<g id="node13" class="node"><title>n701</title>
<ellipse fill="none" stroke="black" cx="586" cy="-344" rx="27" ry="18"/>
<text text-anchor="middle" x="586" y="-339.8" font-family="Times,serif" font-size="14.00">1</text>
</g>
<!-- n701&#45;&gt;n700 -->
<g id="edge11" class="edge"><title>n701&#45;&gt;n700</title>
<path fill="none" stroke="black" d="M578.108,-326.731C573.574,-316.463 568.329,-302.771 566,-290 562.491,-270.762 561.423,-265.012 566,-246 567.656,-239.123 570.55,-232.114 573.738,-225.738"/>
<polygon fill="black" stroke="black" points="576.819,-227.399 578.51,-216.94 570.666,-224.062 576.819,-227.399"/>
</g>
<!-- n702 -->
<g id="node14" class="node"><title>n702</title>
<ellipse fill="none" stroke="black" cx="602" cy="-272" rx="27" ry="18"/>
<text text-anchor="middle" x="602" y="-267.8" font-family="Times,serif" font-size="14.00">2</text>
</g>
<!-- n701&#45;&gt;n702 -->
<g id="edge9" class="edge"><title>n701&#45;&gt;n702</title>
<path fill="none" stroke="black" d="M589.873,-326.055C591.655,-318.261 593.812,-308.822 595.811,-300.079"/>
<polygon fill="black" stroke="black" points="599.235,-300.804 598.051,-290.275 592.411,-299.244 599.235,-300.804"/>
</g>
<!-- n702&#45;&gt;n700 -->
<g id="edge10" class="edge"><title>n702&#45;&gt;n700</title>
<path fill="none" stroke="black" d="M598.853,-254.055C597.421,-246.346 595.691,-237.027 594.082,-228.364"/>
<polygon fill="black" stroke="black" points="597.475,-227.468 592.208,-218.275 590.593,-228.746 597.475,-227.468"/>
</g>
<!-- n803 -->
<g id="node15" class="node"><title>n803</title>
<ellipse fill="none" stroke="black" cx="903" cy="-344" rx="27" ry="18"/>
<text text-anchor="middle" x="903" y="-339.8" font-family="Times,serif" font-size="14.00">3</text>
</g>
<!-- n802 -->
<g id="node16" class="node"><title>n802</title>
<ellipse fill="none" stroke="black" cx="831" cy="-344" rx="27" ry="18"/>
<text text-anchor="middle" x="831" y="-339.8" font-family="Times,serif" font-size="14.00">2</text>
</g>
<!-- n801 -->
<g id="node17" class="node"><title>n801</title>
<ellipse fill="none" stroke="black" cx="759" cy="-344" rx="27" ry="18"/>
<text text-anchor="middle" x="759" y="-339.8" font-family="Times,serif" font-size="14.00">1</text>
</g>
<!-- n800 -->
<g id="node18" class="node"><title>n800</title>
<ellipse fill="none" stroke="black" cx="687" cy="-344" rx="27" ry="18"/>
<text text-anchor="middle" x="687" y="-339.8" font-family="Times,serif" font-size="14.00">0</text>
</g>
<!-- n900 -->
<g id="node19" class="node"><title>n900</title>
<ellipse fill="none" stroke="black" cx="1021" cy="-344" rx="27" ry="18"/>
<text text-anchor="middle" x="1021" y="-339.8" font-family="Times,serif" font-size="14.00">0</text>
</g>
<!-- n901 -->
<g id="node20" class="node"><title>n901</title>
<ellipse fill="none" stroke="black" cx="981" cy="-272" rx="27" ry="18"/>
<text text-anchor="middle" x="981" y="-267.8" font-family="Times,serif" font-size="14.00">1</text>
</g>
<!-- n900&#45;&gt;n901 -->
<g id="edge12" class="edge"><title>n900&#45;&gt;n901</title>
<path fill="none" stroke="black" d="M1011.72,-326.765C1006.83,-318.195 1000.71,-307.494 995.229,-297.9"/>
<polygon fill="black" stroke="black" points="998.227,-296.093 990.227,-289.147 992.15,-299.566 998.227,-296.093"/>
</g>
<!-- n902 -->
<g id="node21" class="node"><title>n902</title>
<ellipse fill="none" stroke="black" cx="1001" cy="-200" rx="27" ry="18"/>
<text text-anchor="middle" x="1001" y="-195.8" font-family="Times,serif" font-size="14.00">2</text>
</g>
<!-- n900&#45;&gt;n902 -->
<g id="edge16" class="edge"><title>n900&#45;&gt;n902</title>
<path fill="none" stroke="black" d="M1021.83,-326C1022.43,-306.492 1022.35,-273.633 1017,-246 1015.81,-239.847 1013.92,-233.403 1011.86,-227.378"/>
<polygon fill="black" stroke="black" points="1015.06,-225.928 1008.31,-217.758 1008.49,-228.351 1015.06,-225.928"/>
</g>
<!-- n903 -->
<g id="node22" class="node"><title>n903</title>
<ellipse fill="none" stroke="black" cx="1001" cy="-128" rx="27" ry="18"/>
<text text-anchor="middle" x="1001" y="-123.8" font-family="Times,serif" font-size="14.00">3</text>
</g>
<!-- n900&#45;&gt;n903 -->
<g id="edge17" class="edge"><title>n900&#45;&gt;n903</title>
<path fill="none" stroke="black" d="M1027.17,-326.12C1037.56,-295.048 1055.63,-227.117 1037,-174 1034.11,-165.769 1029.02,-157.925 1023.55,-151.159"/>
<polygon fill="black" stroke="black" points="1025.8,-148.416 1016.57,-143.217 1020.54,-153.038 1025.8,-148.416"/>
</g>
<!-- n901&#45;&gt;n902 -->
<g id="edge13" class="edge"><title>n901&#45;&gt;n902</title>
<path fill="none" stroke="black" d="M985.841,-254.055C988.102,-246.145 990.846,-236.54 993.375,-227.688"/>
<polygon fill="black" stroke="black" points="996.821,-228.366 996.203,-217.789 990.091,-226.443 996.821,-228.366"/>
</g>
<!-- n904 -->
<g id="node23" class="node"><title>n904</title>
<ellipse fill="none" stroke="black" cx="991" cy="-56" rx="27" ry="18"/>
<text text-anchor="middle" x="991" y="-51.8" font-family="Times,serif" font-size="14.00">4</text>
</g>
<!-- n901&#45;&gt;n904 -->
<g id="edge18" class="edge"><title>n901&#45;&gt;n904</title>
<path fill="none" stroke="black" d="M974.514,-254.104C970.923,-243.835 966.825,-230.361 965,-218 957.989,-170.515 954.149,-156.757 965,-110 967.222,-100.425 971.428,-90.5858 975.82,-82.024"/>
<polygon fill="black" stroke="black" points="979.037,-83.436 980.762,-72.9825 972.895,-80.0789 979.037,-83.436"/>
</g>
<!-- n902&#45;&gt;n903 -->
<g id="edge14" class="edge"><title>n902&#45;&gt;n903</title>
<path fill="none" stroke="black" d="M1001,-181.697C1001,-173.983 1001,-164.712 1001,-156.112"/>
<polygon fill="black" stroke="black" points="1004.5,-156.104 1001,-146.104 997.5,-156.104 1004.5,-156.104"/>
</g>
<!-- n903&#45;&gt;n904 -->
<g id="edge15" class="edge"><title>n903&#45;&gt;n904</title>
<path fill="none" stroke="black" d="M998.579,-110.055C997.478,-102.346 996.147,-93.0269 994.909,-84.3642"/>
<polygon fill="black" stroke="black" points="998.347,-83.6798 993.468,-74.2753 991.417,-84.6698 998.347,-83.6798"/>
</g>
</g>
</svg>
