<?xml version="1.0" encoding="UTF-8" standalone="no"?>
<!DOCTYPE svg PUBLIC "-//W3C//DTD SVG 1.1//EN"
 "http://www.w3.org/Graphics/SVG/1.1/DTD/svg11.dtd">
<!-- Generated by graphviz version 2.38.0 (20140413.2041)
 -->
<!-- Title: %3 Pages: 1 -->
<svg width="786pt" height="336pt"
 viewBox="0.00 0.00 786.00 336.00" xmlns="http://www.w3.org/2000/svg" xmlns:xlink="http://www.w3.org/1999/xlink">
<g id="graph0" class="graph" transform="scale(1 1) rotate(0) translate(4 332)">
<title>%3</title>
<polygon fill="white" stroke="none" points="-4,4 -4,-332 782,-332 782,4 -4,4"/>
<text text-anchor="middle" x="389" y="-6.8" font-family="Times,serif" font-size="14.00">Undirected Acyclic Graphs</text>
<g id="clust1" class="cluster"><title>clusterSingleGraph</title>
<polygon fill="none" stroke="black" points="8,-246 8,-320 92,-320 92,-246 8,-246"/>
<text text-anchor="middle" x="50" y="-304.8" font-family="Times,serif" font-size="14.00">single graph</text>
</g>
<g id="clust2" class="cluster"><title>clusterTwoGraph</title>
<polygon fill="none" stroke="black" points="100,-174 100,-320 172,-320 172,-174 100,-174"/>
<text text-anchor="middle" x="136" y="-304.8" font-family="Times,serif" font-size="14.00">two graph</text>
</g>
<g id="clust3" class="cluster"><title>clusterThreeGraph</title>
<polygon fill="none" stroke="black" points="180,-174 180,-320 322,-320 322,-174 180,-174"/>
<text text-anchor="middle" x="251" y="-304.8" font-family="Times,serif" font-size="14.00">three graph</text>
</g>
<g id="clust4" class="cluster"><title>clusterFourGraph</title>
<polygon fill="none" stroke="black" points="330,-30 330,-320 404,-320 404,-30 330,-30"/>
<text text-anchor="middle" x="367" y="-304.8" font-family="Times,serif" font-size="14.00">four graph</text>
</g>
<g id="clust5" class="cluster"><title>clusterFiveGraph</title>
<polygon fill="none" stroke="black" points="412,-246 412,-320 770,-320 770,-246 412,-246"/>
<text text-anchor="middle" x="591" y="-304.8" font-family="Times,serif" font-size="14.00">five graph</text>
</g>
<!-- n100 -->
<g id="node1" class="node"><title>n100</title>
<ellipse fill="none" stroke="black" cx="50" cy="-272" rx="27" ry="18"/>
<text text-anchor="middle" x="50" y="-267.8" font-family="Times,serif" font-size="14.00">0</text>
</g>
<!-- n200 -->
<g id="node2" class="node"><title>n200</title>
<ellipse fill="none" stroke="black" cx="136" cy="-200" rx="27" ry="18"/>
<text text-anchor="middle" x="136" y="-195.8" font-family="Times,serif" font-size="14.00">0</text>
</g>
<!-- n201 -->
<g id="node3" class="node"><title>n201</title>
<ellipse fill="none" stroke="black" cx="136" cy="-272" rx="27" ry="18"/>
<text text-anchor="middle" x="136" y="-267.8" font-family="Times,serif" font-size="14.00">1</text>
</g>
<!-- n201&#45;&#45;n200 -->
<g id="edge1" class="edge"><title>n201&#45;&#45;n200</title>
<path fill="none" stroke="black" d="M136,-253.697C136,-242.846 136,-228.917 136,-218.104"/>
</g>
<!-- n300 -->
<g id="node4" class="node"><title>n300</title>
<ellipse fill="none" stroke="black" cx="251" cy="-272" rx="27" ry="18"/>
<text text-anchor="middle" x="251" y="-267.8" font-family="Times,serif" font-size="14.00">0</text>
</g>
<!-- n301 -->
<g id="node5" class="node"><title>n301</title>
<ellipse fill="none" stroke="black" cx="215" cy="-200" rx="27" ry="18"/>
<text text-anchor="middle" x="215" y="-195.8" font-family="Times,serif" font-size="14.00">1</text>
</g>
<!-- n300&#45;&#45;n301 -->
<g id="edge2" class="edge"><title>n300&#45;&#45;n301</title>
<path fill="none" stroke="black" d="M242.65,-254.765C236.835,-243.456 229.11,-228.437 223.304,-217.147"/>
</g>
<!-- n302 -->
<g id="node6" class="node"><title>n302</title>
<ellipse fill="none" stroke="black" cx="287" cy="-200" rx="27" ry="18"/>
<text text-anchor="middle" x="287" y="-195.8" font-family="Times,serif" font-size="14.00">2</text>
</g>
<!-- n300&#45;&#45;n302 -->
<g id="edge3" class="edge"><title>n300&#45;&#45;n302</title>
<path fill="none" stroke="black" d="M259.35,-254.765C265.165,-243.456 272.89,-228.437 278.696,-217.147"/>
</g>
<!-- n400 -->
<g id="node7" class="node"><title>n400</title>
<ellipse fill="none" stroke="black" cx="367" cy="-272" rx="27" ry="18"/>
<text text-anchor="middle" x="367" y="-267.8" font-family="Times,serif" font-size="14.00">0</text>
</g>
<!-- n401 -->
<g id="node8" class="node"><title>n401</title>
<ellipse fill="none" stroke="black" cx="367" cy="-200" rx="27" ry="18"/>
<text text-anchor="middle" x="367" y="-195.8" font-family="Times,serif" font-size="14.00">1</text>
</g>
<!-- n400&#45;&#45;n401 -->
<g id="edge4" class="edge"><title>n400&#45;&#45;n401</title>
<path fill="none" stroke="black" d="M367,-253.697C367,-242.846 367,-228.917 367,-218.104"/>
</g>
<!-- n402 -->
<g id="node9" class="node"><title>n402</title>
<ellipse fill="none" stroke="black" cx="367" cy="-128" rx="27" ry="18"/>
<text text-anchor="middle" x="367" y="-123.8" font-family="Times,serif" font-size="14.00">2</text>
</g>
<!-- n401&#45;&#45;n402 -->
<g id="edge5" class="edge"><title>n401&#45;&#45;n402</title>
<path fill="none" stroke="black" d="M367,-181.697C367,-170.846 367,-156.917 367,-146.104"/>
</g>
<!-- n403 -->
<g id="node10" class="node"><title>n403</title>
<ellipse fill="none" stroke="black" cx="367" cy="-56" rx="27" ry="18"/>
<text text-anchor="middle" x="367" y="-51.8" font-family="Times,serif" font-size="14.00">3</text>
</g>
<!-- n402&#45;&#45;n403 -->
<g id="edge6" class="edge"><title>n402&#45;&#45;n403</title>
<path fill="none" stroke="black" d="M367,-109.697C367,-98.8463 367,-84.9167 367,-74.1043"/>
</g>
<!-- n504 -->
<g id="node11" class="node"><title>n504</title>
<ellipse fill="none" stroke="black" cx="735" cy="-272" rx="27" ry="18"/>
<text text-anchor="middle" x="735" y="-267.8" font-family="Times,serif" font-size="14.00">4</text>
</g>
<!-- n503 -->
<g id="node12" class="node"><title>n503</title>
<ellipse fill="none" stroke="black" cx="663" cy="-272" rx="27" ry="18"/>
<text text-anchor="middle" x="663" y="-267.8" font-family="Times,serif" font-size="14.00">3</text>
</g>
<!-- n502 -->
<g id="node13" class="node"><title>n502</title>
<ellipse fill="none" stroke="black" cx="591" cy="-272" rx="27" ry="18"/>
<text text-anchor="middle" x="591" y="-267.8" font-family="Times,serif" font-size="14.00">2</text>
</g>
<!-- n501 -->
<g id="node14" class="node"><title>n501</title>
<ellipse fill="none" stroke="black" cx="519" cy="-272" rx="27" ry="18"/>
<text text-anchor="middle" x="519" y="-267.8" font-family="Times,serif" font-size="14.00">1</text>
</g>
<!-- n500 -->
<g id="node15" class="node"><title>n500</title>
<ellipse fill="none" stroke="black" cx="447" cy="-272" rx="27" ry="18"/>
<text text-anchor="middle" x="447" y="-267.8" font-family="Times,serif" font-size="14.00">0</text>
</g>
</g>
</svg>
