<?xml version="1.0" encoding="UTF-8" standalone="no"?>
<!DOCTYPE svg PUBLIC "-//W3C//DTD SVG 1.1//EN"
 "http://www.w3.org/Graphics/SVG/1.1/DTD/svg11.dtd">
<!-- Generated by graphviz version 2.38.0 (20140413.2041)
 -->
<!-- Title: %3 Pages: 1 -->
<svg width="382pt" height="336pt"
 viewBox="0.00 0.00 382.00 336.00" xmlns="http://www.w3.org/2000/svg" xmlns:xlink="http://www.w3.org/1999/xlink">
<g id="graph0" class="graph" transform="scale(1 1) rotate(0) translate(4 332)">
<title>%3</title>
<polygon fill="white" stroke="none" points="-4,4 -4,-332 378,-332 378,4 -4,4"/>
<text text-anchor="middle" x="187" y="-6.8" font-family="Times,serif" font-size="14.00">Undirected Cyclic Graphs</text>
<g id="clust1" class="cluster"><title>clusterThreeGraph</title>
<polygon fill="none" stroke="black" points="8,-102 8,-320 98,-320 98,-102 8,-102"/>
<text text-anchor="middle" x="53" y="-304.8" font-family="Times,serif" font-size="14.00">three graph</text>
</g>
<g id="clust2" class="cluster"><title>clusterFourGraph</title>
<polygon fill="none" stroke="black" points="106,-30 106,-320 196,-320 196,-30 106,-30"/>
<text text-anchor="middle" x="151" y="-304.8" font-family="Times,serif" font-size="14.00">four graph</text>
</g>
<g id="clust3" class="cluster"><title>clusterFiveGraph</title>
<polygon fill="none" stroke="black" points="204,-30 204,-320 366,-320 366,-30 204,-30"/>
<text text-anchor="middle" x="285" y="-304.8" font-family="Times,serif" font-size="14.00">five graph</text>
</g>
<!-- n000 -->
<g id="node1" class="node"><title>n000</title>
<ellipse fill="none" stroke="black" cx="53" cy="-272" rx="27" ry="18"/>
<text text-anchor="middle" x="53" y="-267.8" font-family="Times,serif" font-size="14.00">0</text>
</g>
<!-- n001 -->
<g id="node2" class="node"><title>n001</title>
<ellipse fill="none" stroke="black" cx="43" cy="-200" rx="27" ry="18"/>
<text text-anchor="middle" x="43" y="-195.8" font-family="Times,serif" font-size="14.00">1</text>
</g>
<!-- n000&#45;&#45;n001 -->
<g id="edge1" class="edge"><title>n000&#45;&#45;n001</title>
<path fill="none" stroke="black" d="M50.5793,-254.055C49.0302,-243.211 47.0261,-229.183 45.4679,-218.275"/>
</g>
<!-- n002 -->
<g id="node3" class="node"><title>n002</title>
<ellipse fill="none" stroke="black" cx="53" cy="-128" rx="27" ry="18"/>
<text text-anchor="middle" x="53" y="-123.8" font-family="Times,serif" font-size="14.00">2</text>
</g>
<!-- n000&#45;&#45;n002 -->
<g id="edge3" class="edge"><title>n000&#45;&#45;n002</title>
<path fill="none" stroke="black" stroke-dasharray="5,2" d="M63.2382,-255.017C69.1246,-244.858 75.9417,-231.178 79,-218 82.617,-202.414 82.617,-197.586 79,-182 75.9417,-168.822 69.1246,-155.142 63.2382,-144.983"/>
</g>
<!-- n001&#45;&#45;n002 -->
<g id="edge2" class="edge"><title>n001&#45;&#45;n002</title>
<path fill="none" stroke="black" d="M45.4207,-182.055C46.9698,-171.211 48.9739,-157.183 50.5321,-146.275"/>
</g>
<!-- n100 -->
<g id="node4" class="node"><title>n100</title>
<ellipse fill="none" stroke="black" cx="151" cy="-272" rx="27" ry="18"/>
<text text-anchor="middle" x="151" y="-267.8" font-family="Times,serif" font-size="14.00">0</text>
</g>
<!-- n101 -->
<g id="node5" class="node"><title>n101</title>
<ellipse fill="none" stroke="black" cx="141" cy="-200" rx="27" ry="18"/>
<text text-anchor="middle" x="141" y="-195.8" font-family="Times,serif" font-size="14.00">1</text>
</g>
<!-- n100&#45;&#45;n101 -->
<g id="edge4" class="edge"><title>n100&#45;&#45;n101</title>
<path fill="none" stroke="black" d="M148.579,-254.055C147.03,-243.211 145.026,-229.183 143.468,-218.275"/>
</g>
<!-- n103 -->
<g id="node7" class="node"><title>n103</title>
<ellipse fill="none" stroke="black" cx="151" cy="-56" rx="27" ry="18"/>
<text text-anchor="middle" x="151" y="-51.8" font-family="Times,serif" font-size="14.00">3</text>
</g>
<!-- n100&#45;&#45;n103 -->
<g id="edge7" class="edge"><title>n100&#45;&#45;n103</title>
<path fill="none" stroke="black" stroke-dasharray="5,2" d="M161.238,-255.017C167.125,-244.858 173.942,-231.178 177,-218 188.655,-167.779 190.352,-151.797 177,-102 174.149,-91.3678 168.111,-80.6493 162.57,-72.3416"/>
</g>
<!-- n102 -->
<g id="node6" class="node"><title>n102</title>
<ellipse fill="none" stroke="black" cx="141" cy="-128" rx="27" ry="18"/>
<text text-anchor="middle" x="141" y="-123.8" font-family="Times,serif" font-size="14.00">2</text>
</g>
<!-- n101&#45;&#45;n102 -->
<g id="edge5" class="edge"><title>n101&#45;&#45;n102</title>
<path fill="none" stroke="black" d="M141,-181.697C141,-170.846 141,-156.917 141,-146.104"/>
</g>
<!-- n102&#45;&#45;n103 -->
<g id="edge6" class="edge"><title>n102&#45;&#45;n103</title>
<path fill="none" stroke="black" d="M143.421,-110.055C144.97,-99.2111 146.974,-85.183 148.532,-74.2753"/>
</g>
<!-- n200 -->
<g id="node8" class="node"><title>n200</title>
<ellipse fill="none" stroke="black" cx="272" cy="-272" rx="27" ry="18"/>
<text text-anchor="middle" x="272" y="-267.8" font-family="Times,serif" font-size="14.00">0</text>
</g>
<!-- n201 -->
<g id="node9" class="node"><title>n201</title>
<ellipse fill="none" stroke="black" cx="272" cy="-200" rx="27" ry="18"/>
<text text-anchor="middle" x="272" y="-195.8" font-family="Times,serif" font-size="14.00">1</text>
</g>
<!-- n200&#45;&#45;n201 -->
<g id="edge8" class="edge"><title>n200&#45;&#45;n201</title>
<path fill="none" stroke="black" d="M272,-253.697C272,-242.846 272,-228.917 272,-218.104"/>
</g>
<!-- n204 -->
<g id="node12" class="node"><title>n204</title>
<ellipse fill="none" stroke="black" cx="249" cy="-56" rx="27" ry="18"/>
<text text-anchor="middle" x="249" y="-51.8" font-family="Times,serif" font-size="14.00">4</text>
</g>
<!-- n200&#45;&#45;n204 -->
<g id="edge13" class="edge"><title>n200&#45;&#45;n204</title>
<path fill="none" stroke="black" stroke-dasharray="5,2" d="M259.104,-255.764C251.234,-245.674 241.634,-231.799 236,-218 223.708,-187.895 225.9,-178.388 223,-146 221.256,-126.522 217.936,-120.888 223,-102 225.851,-91.3678 231.889,-80.6493 237.43,-72.3416"/>
</g>
<!-- n202 -->
<g id="node10" class="node"><title>n202</title>
<ellipse fill="none" stroke="black" cx="331" cy="-128" rx="27" ry="18"/>
<text text-anchor="middle" x="331" y="-123.8" font-family="Times,serif" font-size="14.00">2</text>
</g>
<!-- n201&#45;&#45;n202 -->
<g id="edge9" class="edge"><title>n201&#45;&#45;n202</title>
<path fill="none" stroke="black" d="M284.802,-183.811C294.698,-172.07 308.333,-155.893 318.223,-144.159"/>
</g>
<!-- n203 -->
<g id="node11" class="node"><title>n203</title>
<ellipse fill="none" stroke="black" cx="259" cy="-128" rx="27" ry="18"/>
<text text-anchor="middle" x="259" y="-123.8" font-family="Times,serif" font-size="14.00">3</text>
</g>
<!-- n201&#45;&#45;n203 -->
<g id="edge11" class="edge"><title>n201&#45;&#45;n203</title>
<path fill="none" stroke="black" d="M268.853,-182.055C266.839,-171.211 264.234,-157.183 262.208,-146.275"/>
</g>
<!-- n202&#45;&#45;n200 -->
<g id="edge10" class="edge"><title>n202&#45;&#45;n200</title>
<path fill="none" stroke="black" stroke-dasharray="5,2" d="M328.403,-145.982C325.192,-164.334 318.786,-194.153 308,-218 301.857,-231.581 292.282,-245.465 284.55,-255.615"/>
</g>
<!-- n203&#45;&#45;n204 -->
<g id="edge12" class="edge"><title>n203&#45;&#45;n204</title>
<path fill="none" stroke="black" d="M256.579,-110.055C255.03,-99.2111 253.026,-85.183 251.468,-74.2753"/>
</g>
</g>
</svg>
