<?xml version="1.0" encoding="UTF-8" standalone="no"?>
<!DOCTYPE svg PUBLIC "-//W3C//DTD SVG 1.1//EN"
 "http://www.w3.org/Graphics/SVG/1.1/DTD/svg11.dtd">
<!-- Generated by graphviz version 2.38.0 (20140413.2041)
 -->
<!-- Title: pf_tree_after Pages: 1 -->
<svg width="278pt" height="282pt"
 viewBox="0.00 0.00 278.00 282.00" xmlns="http://www.w3.org/2000/svg" xmlns:xlink="http://www.w3.org/1999/xlink">
<g id="graph0" class="graph" transform="scale(1 1) rotate(0) translate(4 278)">
<title>pf_tree_after</title>
<polygon fill="white" stroke="none" points="-4,4 -4,-278 274,-278 274,4 -4,4"/>
<text text-anchor="middle" x="135" y="-6.8" font-family="Times,serif" font-size="14.00">Setting a new value of the node 2</text>
<!-- first version -->
<g id="node1" class="node"><title>first version</title>
<text text-anchor="middle" x="100" y="-251.8" font-family="Times,serif" font-size="14.00">first version</text>
</g>
<!-- 0 -->
<g id="node2" class="node"><title>0</title>
<ellipse fill="none" stroke="black" cx="100" cy="-184" rx="27" ry="18"/>
<text text-anchor="middle" x="100" y="-179.8" font-family="Times,serif" font-size="14.00">0</text>
</g>
<!-- first version&#45;&gt;0 -->
<g id="edge1" class="edge"><title>first version&#45;&gt;0</title>
<path fill="none" stroke="black" d="M100,-237.697C100,-229.983 100,-220.712 100,-212.112"/>
<polygon fill="black" stroke="black" points="103.5,-212.104 100,-202.104 96.5001,-212.104 103.5,-212.104"/>
</g>
<!-- 1 -->
<g id="node3" class="node"><title>1</title>
<ellipse fill="none" stroke="black" cx="84" cy="-112" rx="27" ry="18"/>
<text text-anchor="middle" x="84" y="-107.8" font-family="Times,serif" font-size="14.00">1</text>
</g>
<!-- 0&#45;&gt;1 -->
<g id="edge2" class="edge"><title>0:sw&#45;&gt;1</title>
<path fill="none" stroke="black" d="M85,-168C77.7827,-160.783 76.4173,-150.006 77.2756,-139.899"/>
<polygon fill="black" stroke="black" points="80.77,-140.201 78.8228,-129.787 73.8505,-139.142 80.77,-140.201"/>
</g>
<!-- 2 -->
<g id="node4" class="node"><title>2</title>
<ellipse fill="none" stroke="black" cx="156" cy="-112" rx="27" ry="18"/>
<text text-anchor="middle" x="156" y="-107.8" font-family="Times,serif" font-size="14.00">2</text>
</g>
<!-- 0&#45;&gt;2 -->
<g id="edge3" class="edge"><title>0:se&#45;&gt;2</title>
<path fill="none" stroke="black" d="M115,-168C124.249,-158.751 133.108,-147.315 140.21,-137.271"/>
<polygon fill="black" stroke="black" points="143.188,-139.117 145.964,-128.892 137.418,-135.154 143.188,-139.117"/>
</g>
<!-- 3 -->
<g id="node5" class="node"><title>3</title>
<ellipse fill="none" stroke="black" cx="27" cy="-40" rx="27" ry="18"/>
<text text-anchor="middle" x="27" y="-35.8" font-family="Times,serif" font-size="14.00">3</text>
</g>
<!-- 1&#45;&gt;3 -->
<g id="edge4" class="edge"><title>1:sw&#45;&gt;3</title>
<path fill="none" stroke="black" d="M69,-96C59.6696,-86.6696 50.6147,-75.222 43.3162,-65.1911"/>
<polygon fill="black" stroke="black" points="46.0289,-62.9656 37.3917,-56.8296 40.3173,-67.0125 46.0289,-62.9656"/>
</g>
<!-- 4 -->
<g id="node6" class="node"><title>4</title>
<ellipse fill="none" stroke="black" cx="99" cy="-40" rx="27" ry="18"/>
<text text-anchor="middle" x="99" y="-35.8" font-family="Times,serif" font-size="14.00">4</text>
</g>
<!-- 1&#45;&gt;4 -->
<g id="edge5" class="edge"><title>1:se&#45;&gt;4</title>
<path fill="none" stroke="black" d="M99,-96C106.216,-88.7839 107.407,-78.007 106.346,-67.9002"/>
<polygon fill="black" stroke="black" points="109.748,-67.038 104.583,-57.7876 102.852,-68.2402 109.748,-67.038"/>
</g>
<!-- 5 -->
<g id="node7" class="node"><title>5</title>
<ellipse fill="none" stroke="black" cx="171" cy="-40" rx="27" ry="18"/>
<text text-anchor="middle" x="171" y="-35.8" font-family="Times,serif" font-size="14.00">5</text>
</g>
<!-- 2&#45;&gt;5 -->
<g id="edge6" class="edge"><title>2:sw&#45;&gt;5</title>
<path fill="none" stroke="black" d="M141,-96C131.377,-86.3766 138.327,-73.0212 147.949,-61.881"/>
<polygon fill="black" stroke="black" points="150.519,-64.2574 154.867,-54.5955 145.443,-59.4376 150.519,-64.2574"/>
</g>
<!-- 6 -->
<g id="node8" class="node"><title>6</title>
<ellipse fill="none" stroke="black" cx="243" cy="-40" rx="27" ry="18"/>
<text text-anchor="middle" x="243" y="-35.8" font-family="Times,serif" font-size="14.00">6</text>
</g>
<!-- 2&#45;&gt;6 -->
<g id="edge7" class="edge"><title>2:se&#45;&gt;6</title>
<path fill="none" stroke="black" d="M171,-96C184.724,-82.2757 201.945,-69.004 216.104,-58.9369"/>
<polygon fill="black" stroke="black" points="218.264,-61.6977 224.466,-53.1075 214.261,-55.9555 218.264,-61.6977"/>
</g>
<!-- second version -->
<g id="node9" class="node"><title>second version</title>
<text text-anchor="middle" x="211" y="-251.8" font-family="Times,serif" font-size="14.00" fill="blue">second version</text>
</g>
<!-- 0&#39; -->
<g id="node10" class="node"><title>0&#39;</title>
<ellipse fill="none" stroke="blue" cx="211" cy="-184" rx="27" ry="18"/>
<text text-anchor="middle" x="211" y="-179.8" font-family="Times,serif" font-size="14.00" fill="blue">0&#39;</text>
</g>
<!-- second version&#45;&gt;0&#39; -->
<g id="edge8" class="edge"><title>second version&#45;&gt;0&#39;</title>
<path fill="none" stroke="blue" d="M211,-237.697C211,-229.983 211,-220.712 211,-212.112"/>
<polygon fill="blue" stroke="blue" points="214.5,-212.104 211,-202.104 207.5,-212.104 214.5,-212.104"/>
</g>
<!-- 0&#39;&#45;&gt;1 -->
<g id="edge9" class="edge"><title>0&#39;:sw&#45;&gt;1</title>
<path fill="none" stroke="blue" d="M196,-168C192.833,-164.833 147.011,-142.802 114.97,-127.603"/>
<polygon fill="blue" stroke="blue" points="116.067,-124.25 105.532,-123.134 113.072,-130.577 116.067,-124.25"/>
</g>
<!-- 2* -->
<g id="node11" class="node"><title>2*</title>
<ellipse fill="none" stroke="green" cx="228" cy="-112" rx="27" ry="18"/>
<text text-anchor="middle" x="228" y="-107.8" font-family="Times,serif" font-size="14.00" fill="green">2*</text>
</g>
<!-- 0&#39;&#45;&gt;2* -->
<g id="edge10" class="edge"><title>0&#39;:se&#45;&gt;2*</title>
<path fill="none" stroke="blue" d="M226,-168C233.221,-160.779 234.761,-150.001 234.105,-139.895"/>
<polygon fill="blue" stroke="blue" points="237.55,-139.241 232.773,-129.784 230.61,-140.155 237.55,-139.241"/>
</g>
<!-- 2*&#45;&gt;5 -->
<g id="edge11" class="edge"><title>2*:sw&#45;&gt;5</title>
<path fill="none" stroke="blue" d="M213,-96C203.67,-86.6696 194.615,-75.222 187.316,-65.1911"/>
<polygon fill="blue" stroke="blue" points="190.029,-62.9656 181.392,-56.8296 184.317,-67.0125 190.029,-62.9656"/>
</g>
<!-- 2*&#45;&gt;6 -->
<g id="edge12" class="edge"><title>2*:se&#45;&gt;6</title>
<path fill="none" stroke="blue" d="M243,-96C250.216,-88.7839 251.407,-78.007 250.346,-67.9002"/>
<polygon fill="blue" stroke="blue" points="253.748,-67.038 248.583,-57.7876 246.852,-68.2402 253.748,-67.038"/>
</g>
</g>
</svg>
