<?xml version="1.0" encoding="UTF-8" standalone="no"?>
<!DOCTYPE svg PUBLIC "-//W3C//DTD SVG 1.1//EN"
 "http://www.w3.org/Graphics/SVG/1.1/DTD/svg11.dtd">
<!-- Generated by graphviz version 2.38.0 (20140413.2041)
 -->
<!-- Title: pf_tree_after Pages: 1 -->
<svg width="350pt" height="282pt"
 viewBox="0.00 0.00 350.00 282.00" xmlns="http://www.w3.org/2000/svg" xmlns:xlink="http://www.w3.org/1999/xlink">
<g id="graph0" class="graph" transform="scale(1 1) rotate(0) translate(4 278)">
<title>pf_tree_after</title>
<polygon fill="white" stroke="none" points="-4,4 -4,-278 346,-278 346,4 -4,4"/>
<text text-anchor="middle" x="171" y="-6.8" font-family="Times,serif" font-size="14.00">Setting a new value of the node 5</text>
<!-- first version -->
<g id="node1" class="node"><title>first version</title>
<text text-anchor="middle" x="112" y="-251.8" font-family="Times,serif" font-size="14.00">first version</text>
</g>
<!-- 0 -->
<g id="node2" class="node"><title>0</title>
<ellipse fill="none" stroke="black" cx="112" cy="-184" rx="27" ry="18"/>
<text text-anchor="middle" x="112" y="-179.8" font-family="Times,serif" font-size="14.00">0</text>
</g>
<!-- first version&#45;&gt;0 -->
<g id="edge1" class="edge"><title>first version&#45;&gt;0</title>
<path fill="none" stroke="black" d="M112,-237.697C112,-229.983 112,-220.712 112,-212.112"/>
<polygon fill="black" stroke="black" points="115.5,-212.104 112,-202.104 108.5,-212.104 115.5,-212.104"/>
</g>
<!-- 1 -->
<g id="node3" class="node"><title>1</title>
<ellipse fill="none" stroke="black" cx="88" cy="-112" rx="27" ry="18"/>
<text text-anchor="middle" x="88" y="-107.8" font-family="Times,serif" font-size="14.00">1</text>
</g>
<!-- 0&#45;&gt;1 -->
<g id="edge2" class="edge"><title>0:sw&#45;&gt;1</title>
<path fill="none" stroke="black" d="M97,-168C89.7387,-160.739 86.9513,-150.045 86.1763,-140.013"/>
<polygon fill="black" stroke="black" points="89.675,-139.904 85.9939,-129.969 82.6761,-140.031 89.675,-139.904"/>
</g>
<!-- 2 -->
<g id="node4" class="node"><title>2</title>
<ellipse fill="none" stroke="black" cx="186" cy="-112" rx="27" ry="18"/>
<text text-anchor="middle" x="186" y="-107.8" font-family="Times,serif" font-size="14.00">2</text>
</g>
<!-- 0&#45;&gt;2 -->
<g id="edge3" class="edge"><title>0:se&#45;&gt;2</title>
<path fill="none" stroke="black" d="M127,-168C138.474,-156.526 151.649,-144.171 162.634,-134.083"/>
<polygon fill="black" stroke="black" points="165.166,-136.511 170.19,-127.183 160.445,-131.341 165.166,-136.511"/>
</g>
<!-- 3 -->
<g id="node5" class="node"><title>3</title>
<ellipse fill="none" stroke="black" cx="27" cy="-40" rx="27" ry="18"/>
<text text-anchor="middle" x="27" y="-35.8" font-family="Times,serif" font-size="14.00">3</text>
</g>
<!-- 1&#45;&gt;3 -->
<g id="edge4" class="edge"><title>1:sw&#45;&gt;3</title>
<path fill="none" stroke="black" d="M73,-96C63.2352,-86.2352 53.2951,-74.605 45.1654,-64.5598"/>
<polygon fill="black" stroke="black" points="47.7721,-62.2147 38.8058,-56.5705 42.2954,-66.5742 47.7721,-62.2147"/>
</g>
<!-- 4 -->
<g id="node6" class="node"><title>4</title>
<ellipse fill="none" stroke="black" cx="99" cy="-40" rx="27" ry="18"/>
<text text-anchor="middle" x="99" y="-35.8" font-family="Times,serif" font-size="14.00">4</text>
</g>
<!-- 1&#45;&gt;4 -->
<g id="edge5" class="edge"><title>1:se&#45;&gt;4</title>
<path fill="none" stroke="black" d="M103,-96C110.362,-88.6379 110.747,-77.6055 108.755,-67.3496"/>
<polygon fill="black" stroke="black" points="112.093,-66.2819 106.14,-57.5173 105.328,-68.081 112.093,-66.2819"/>
</g>
<!-- 5 -->
<g id="node7" class="node"><title>5</title>
<ellipse fill="none" stroke="black" cx="171" cy="-40" rx="27" ry="18"/>
<text text-anchor="middle" x="171" y="-35.8" font-family="Times,serif" font-size="14.00">5</text>
</g>
<!-- 2&#45;&gt;5 -->
<g id="edge6" class="edge"><title>2:sw&#45;&gt;5</title>
<path fill="none" stroke="black" d="M171,-96C163.784,-88.7839 162.593,-78.007 163.654,-67.9002"/>
<polygon fill="black" stroke="black" points="167.148,-68.2402 165.417,-57.7876 160.252,-67.038 167.148,-68.2402"/>
</g>
<!-- 6 -->
<g id="node8" class="node"><title>6</title>
<ellipse fill="none" stroke="black" cx="315" cy="-40" rx="27" ry="18"/>
<text text-anchor="middle" x="315" y="-35.8" font-family="Times,serif" font-size="14.00">6</text>
</g>
<!-- 2&#45;&gt;6 -->
<g id="edge7" class="edge"><title>2:se&#45;&gt;6</title>
<path fill="none" stroke="black" d="M201,-96C202.626,-94.3736 250.911,-71.3382 284.112,-55.6002"/>
<polygon fill="black" stroke="black" points="285.904,-58.6241 293.444,-51.1805 282.908,-52.2977 285.904,-58.6241"/>
</g>
<!-- second version -->
<g id="node9" class="node"><title>second version</title>
<text text-anchor="middle" x="238" y="-251.8" font-family="Times,serif" font-size="14.00" fill="blue">second version</text>
</g>
<!-- 0&#39; -->
<g id="node10" class="node"><title>0&#39;</title>
<ellipse fill="none" stroke="blue" cx="238" cy="-184" rx="27" ry="18"/>
<text text-anchor="middle" x="238" y="-179.8" font-family="Times,serif" font-size="14.00" fill="blue">0&#39;</text>
</g>
<!-- second version&#45;&gt;0&#39; -->
<g id="edge8" class="edge"><title>second version&#45;&gt;0&#39;</title>
<path fill="none" stroke="blue" d="M238,-237.697C238,-229.983 238,-220.712 238,-212.112"/>
<polygon fill="blue" stroke="blue" points="241.5,-212.104 238,-202.104 234.5,-212.104 241.5,-212.104"/>
</g>
<!-- 0&#39;&#45;&gt;1 -->
<g id="edge9" class="edge"><title>0&#39;:sw&#45;&gt;1</title>
<path fill="none" stroke="blue" d="M223,-168C208.3,-153.3 156.872,-134.817 121.908,-123.46"/>
<polygon fill="blue" stroke="blue" points="122.677,-120.031 112.086,-120.316 120.543,-126.698 122.677,-120.031"/>
</g>
<!-- 2&#39; -->
<g id="node11" class="node"><title>2&#39;</title>
<ellipse fill="none" stroke="blue" cx="258" cy="-112" rx="27" ry="18"/>
<text text-anchor="middle" x="258" y="-107.8" font-family="Times,serif" font-size="14.00" fill="blue">2&#39;</text>
</g>
<!-- 0&#39;&#45;&gt;2&#39; -->
<g id="edge10" class="edge"><title>0&#39;:se&#45;&gt;2&#39;</title>
<path fill="none" stroke="blue" d="M253,-168C260.196,-160.804 262.284,-150.122 262.264,-140.08"/>
<polygon fill="blue" stroke="blue" points="265.751,-139.771 261.604,-130.021 258.766,-140.229 265.751,-139.771"/>
</g>
<!-- 2&#39;&#45;&gt;6 -->
<g id="edge12" class="edge"><title>2&#39;:se&#45;&gt;6</title>
<path fill="none" stroke="blue" d="M273,-96C282.33,-86.6696 291.385,-75.222 298.684,-65.1911"/>
<polygon fill="blue" stroke="blue" points="301.683,-67.0125 304.608,-56.8296 295.971,-62.9656 301.683,-67.0125"/>
</g>
<!-- 5* -->
<g id="node12" class="node"><title>5*</title>
<ellipse fill="none" stroke="green" cx="243" cy="-40" rx="27" ry="18"/>
<text text-anchor="middle" x="243" y="-35.8" font-family="Times,serif" font-size="14.00" fill="green">5*</text>
</g>
<!-- 2&#39;&#45;&gt;5* -->
<g id="edge11" class="edge"><title>2&#39;:sw&#45;&gt;5*</title>
<path fill="none" stroke="blue" d="M243,-96C235.784,-88.7839 234.593,-78.007 235.654,-67.9002"/>
<polygon fill="blue" stroke="blue" points="239.148,-68.2402 237.417,-57.7876 232.252,-67.038 239.148,-68.2402"/>
</g>
</g>
</svg>
