<?xml version="1.0" encoding="UTF-8" standalone="no"?>
<!DOCTYPE svg PUBLIC "-//W3C//DTD SVG 1.1//EN"
 "http://www.w3.org/Graphics/SVG/1.1/DTD/svg11.dtd">
<!-- Generated by graphviz version 2.38.0 (20140413.2041)
 -->
<!-- Title: %3 Pages: 1 -->
<svg width="379pt" height="498pt"
 viewBox="0.00 0.00 379.12 498.00" xmlns="http://www.w3.org/2000/svg" xmlns:xlink="http://www.w3.org/1999/xlink">
<g id="graph0" class="graph" transform="scale(1 1) rotate(0) translate(4 494)">
<title>%3</title>
<polygon fill="white" stroke="none" points="-4,4 -4,-494 375.117,-494 375.117,4 -4,4"/>
<text text-anchor="middle" x="185.559" y="-6.8" font-family="Times,serif" font-size="14.00">A Directed Graph</text>
<!-- 0 -->
<g id="node1" class="node"><title>0</title>
<ellipse fill="none" stroke="black" cx="80.1171" cy="-328" rx="27" ry="18"/>
<text text-anchor="middle" x="80.1171" y="-323.8" font-family="Times,serif" font-size="14.00">0</text>
</g>
<!-- 1 -->
<g id="node2" class="node"><title>1</title>
<ellipse fill="none" stroke="black" cx="44.1171" cy="-256" rx="27" ry="18"/>
<text text-anchor="middle" x="44.1171" y="-251.8" font-family="Times,serif" font-size="14.00">1</text>
</g>
<!-- 0&#45;&gt;1 -->
<g id="edge1" class="edge"><title>0&#45;&gt;1</title>
<path fill="none" stroke="black" d="M71.7675,-310.765C67.4056,-302.283 61.9702,-291.714 57.0758,-282.197"/>
<polygon fill="black" stroke="black" points="60.1075,-280.439 52.4215,-273.147 53.8825,-283.641 60.1075,-280.439"/>
</g>
<!-- 5 -->
<g id="node3" class="node"><title>5</title>
<ellipse fill="none" stroke="black" cx="116.117" cy="-256" rx="27" ry="18"/>
<text text-anchor="middle" x="116.117" y="-251.8" font-family="Times,serif" font-size="14.00">5</text>
</g>
<!-- 0&#45;&gt;5 -->
<g id="edge2" class="edge"><title>0&#45;&gt;5</title>
<path fill="none" stroke="black" d="M88.4667,-310.765C92.8287,-302.283 98.264,-291.714 103.158,-282.197"/>
<polygon fill="black" stroke="black" points="106.352,-283.641 107.813,-273.147 100.127,-280.439 106.352,-283.641"/>
</g>
<!-- 4 -->
<g id="node6" class="node"><title>4</title>
<ellipse fill="none" stroke="black" cx="171.117" cy="-184" rx="27" ry="18"/>
<text text-anchor="middle" x="171.117" y="-179.8" font-family="Times,serif" font-size="14.00">4</text>
</g>
<!-- 5&#45;&gt;4 -->
<g id="edge9" class="edge"><title>5&#45;&gt;4</title>
<path fill="none" stroke="black" d="M128.051,-239.811C135.331,-230.546 144.78,-218.52 152.972,-208.094"/>
<polygon fill="black" stroke="black" points="155.78,-210.185 159.206,-200.159 150.276,-205.86 155.78,-210.185"/>
</g>
<!-- 2 -->
<g id="node4" class="node"><title>2</title>
<ellipse fill="none" stroke="black" cx="61.1171" cy="-112" rx="27" ry="18"/>
<text text-anchor="middle" x="61.1171" y="-107.8" font-family="Times,serif" font-size="14.00">2</text>
</g>
<!-- 2&#45;&gt;0 -->
<g id="edge3" class="edge"><title>2&#45;&gt;0</title>
<path fill="none" stroke="black" d="M48.4117,-128.244C25.6281,-157.546 -17.509,-223.316 8.11713,-274 16.7007,-290.977 33.5686,-303.846 48.8208,-312.65"/>
<polygon fill="black" stroke="black" points="47.5566,-315.944 58.0203,-317.606 50.8768,-309.782 47.5566,-315.944"/>
</g>
<!-- 3 -->
<g id="node5" class="node"><title>3</title>
<ellipse fill="none" stroke="black" cx="88.1171" cy="-40" rx="27" ry="18"/>
<text text-anchor="middle" x="88.1171" y="-35.8" font-family="Times,serif" font-size="14.00">3</text>
</g>
<!-- 2&#45;&gt;3 -->
<g id="edge4" class="edge"><title>2&#45;&gt;3</title>
<path fill="none" stroke="black" d="M61.8756,-93.6966C64.2529,-85.2831 68.0215,-75.018 72.0671,-65.7905"/>
<polygon fill="black" stroke="black" points="75.2662,-67.2119 76.3364,-56.6712 68.9265,-64.2438 75.2662,-67.2119"/>
</g>
<!-- 3&#45;&gt;5 -->
<g id="edge6" class="edge"><title>3&#45;&gt;5</title>
<path fill="none" stroke="black" d="M91.2565,-58.1511C93.0961,-68.5109 95.39,-81.9905 97.1171,-94 103.848,-140.805 109.928,-195.519 113.312,-227.602"/>
<polygon fill="black" stroke="black" points="109.833,-227.988 114.353,-237.57 116.795,-227.261 109.833,-227.988"/>
</g>
<!-- 3&#45;&gt;2 -->
<g id="edge5" class="edge"><title>3&#45;&gt;2</title>
<path fill="none" stroke="black" d="M87.3141,-58.4609C84.9206,-66.8932 81.1442,-77.1572 77.0976,-86.3681"/>
<polygon fill="black" stroke="black" points="73.9086,-84.925 72.8293,-95.4647 80.2457,-87.8985 73.9086,-84.925"/>
</g>
<!-- 4&#45;&gt;2 -->
<g id="edge7" class="edge"><title>4&#45;&gt;2</title>
<path fill="none" stroke="black" d="M151.957,-170.807C134.448,-159.665 108.358,-143.062 88.624,-130.504"/>
<polygon fill="black" stroke="black" points="90.3738,-127.469 80.0581,-125.053 86.6156,-133.375 90.3738,-127.469"/>
</g>
<!-- 4&#45;&gt;3 -->
<g id="edge8" class="edge"><title>4&#45;&gt;3</title>
<path fill="none" stroke="black" d="M164.828,-166.324C157.596,-147.976 144.811,-117.917 130.117,-94 123.718,-83.5841 115.576,-72.8732 108.168,-63.8304"/>
<polygon fill="black" stroke="black" points="110.75,-61.4627 101.642,-56.0511 105.387,-65.9617 110.75,-61.4627"/>
</g>
<!-- 6 -->
<g id="node7" class="node"><title>6</title>
<ellipse fill="none" stroke="black" cx="226.117" cy="-400" rx="27" ry="18"/>
<text text-anchor="middle" x="226.117" y="-395.8" font-family="Times,serif" font-size="14.00">6</text>
</g>
<!-- 6&#45;&gt;0 -->
<g id="edge10" class="edge"><title>6&#45;&gt;0</title>
<path fill="none" stroke="black" d="M204.887,-388.821C180.018,-376.898 138.633,-357.056 110.4,-343.519"/>
<polygon fill="black" stroke="black" points="111.903,-340.358 101.372,-339.191 108.876,-346.67 111.903,-340.358"/>
</g>
<!-- 6&#45;&gt;4 -->
<g id="edge11" class="edge"><title>6&#45;&gt;4</title>
<path fill="none" stroke="black" d="M212.931,-383.877C204.946,-373.832 195.327,-359.965 190.117,-346 173.413,-301.222 170.509,-245.012 170.447,-212.236"/>
<polygon fill="black" stroke="black" points="173.948,-212.095 170.52,-202.07 166.948,-212.045 173.948,-212.095"/>
</g>
<!-- 8 -->
<g id="node8" class="node"><title>8</title>
<ellipse fill="none" stroke="black" cx="226.117" cy="-328" rx="27" ry="18"/>
<text text-anchor="middle" x="226.117" y="-323.8" font-family="Times,serif" font-size="14.00">8</text>
</g>
<!-- 6&#45;&gt;8 -->
<g id="edge12" class="edge"><title>6&#45;&gt;8</title>
<path fill="none" stroke="black" d="M220.277,-382.411C219.415,-374.507 219.165,-364.852 219.529,-355.935"/>
<polygon fill="black" stroke="black" points="223.02,-356.179 220.238,-345.956 216.038,-355.683 223.02,-356.179"/>
</g>
<!-- 9 -->
<g id="node9" class="node"><title>9</title>
<ellipse fill="none" stroke="black" cx="298.117" cy="-328" rx="27" ry="18"/>
<text text-anchor="middle" x="298.117" y="-323.8" font-family="Times,serif" font-size="14.00">9</text>
</g>
<!-- 6&#45;&gt;9 -->
<g id="edge13" class="edge"><title>6&#45;&gt;9</title>
<path fill="none" stroke="black" d="M240.687,-384.834C250.867,-374.938 264.641,-361.546 276.148,-350.359"/>
<polygon fill="black" stroke="black" points="278.591,-352.865 283.321,-343.385 273.712,-347.846 278.591,-352.865"/>
</g>
<!-- 8&#45;&gt;6 -->
<g id="edge16" class="edge"><title>8&#45;&gt;6</title>
<path fill="none" stroke="black" d="M231.997,-345.956C232.831,-353.827 233.066,-363.374 232.7,-372.187"/>
<polygon fill="black" stroke="black" points="229.191,-372.184 231.957,-382.411 236.173,-372.691 229.191,-372.184"/>
</g>
<!-- 10 -->
<g id="node11" class="node"><title>10</title>
<ellipse fill="none" stroke="black" cx="344.117" cy="-256" rx="27" ry="18"/>
<text text-anchor="middle" x="344.117" y="-251.8" font-family="Times,serif" font-size="14.00">10</text>
</g>
<!-- 9&#45;&gt;10 -->
<g id="edge17" class="edge"><title>9&#45;&gt;10</title>
<path fill="none" stroke="black" d="M308.555,-311.116C314.319,-302.345 321.601,-291.264 328.072,-281.416"/>
<polygon fill="black" stroke="black" points="331.153,-283.1 333.72,-272.821 325.304,-279.256 331.153,-283.1"/>
</g>
<!-- 11 -->
<g id="node12" class="node"><title>11</title>
<ellipse fill="none" stroke="black" cx="234.117" cy="-256" rx="27" ry="18"/>
<text text-anchor="middle" x="234.117" y="-251.8" font-family="Times,serif" font-size="14.00">11</text>
</g>
<!-- 9&#45;&gt;11 -->
<g id="edge18" class="edge"><title>9&#45;&gt;11</title>
<path fill="none" stroke="black" d="M284.544,-312.155C275.805,-302.596 264.283,-289.994 254.459,-279.249"/>
<polygon fill="black" stroke="black" points="257.001,-276.842 247.67,-271.824 251.835,-281.566 257.001,-276.842"/>
</g>
<!-- 7 -->
<g id="node10" class="node"><title>7</title>
<ellipse fill="none" stroke="black" cx="253.117" cy="-472" rx="27" ry="18"/>
<text text-anchor="middle" x="253.117" y="-467.8" font-family="Times,serif" font-size="14.00">7</text>
</g>
<!-- 7&#45;&gt;6 -->
<g id="edge14" class="edge"><title>7&#45;&gt;6</title>
<path fill="none" stroke="black" d="M246.719,-454.411C243.604,-446.335 239.783,-436.431 236.283,-427.355"/>
<polygon fill="black" stroke="black" points="239.522,-426.027 232.657,-417.956 232.991,-428.546 239.522,-426.027"/>
</g>
<!-- 7&#45;&gt;9 -->
<g id="edge15" class="edge"><title>7&#45;&gt;9</title>
<path fill="none" stroke="black" d="M258.456,-454.153C266.169,-429.813 280.508,-384.568 289.667,-355.665"/>
<polygon fill="black" stroke="black" points="293.101,-356.415 292.785,-345.825 286.428,-354.3 293.101,-356.415"/>
</g>
<!-- 12 -->
<g id="node13" class="node"><title>12</title>
<ellipse fill="none" stroke="black" cx="289.117" cy="-184" rx="27" ry="18"/>
<text text-anchor="middle" x="289.117" y="-179.8" font-family="Times,serif" font-size="14.00">12</text>
</g>
<!-- 10&#45;&gt;12 -->
<g id="edge19" class="edge"><title>10&#45;&gt;12</title>
<path fill="none" stroke="black" d="M332.183,-239.811C324.904,-230.546 315.455,-218.52 307.263,-208.094"/>
<polygon fill="black" stroke="black" points="309.958,-205.86 301.028,-200.159 304.454,-210.185 309.958,-205.86"/>
</g>
<!-- 11&#45;&gt;4 -->
<g id="edge20" class="edge"><title>11&#45;&gt;4</title>
<path fill="none" stroke="black" d="M220.756,-240.155C212.237,-230.689 201.032,-218.238 191.424,-207.563"/>
<polygon fill="black" stroke="black" points="193.75,-204.915 184.459,-199.824 188.547,-209.598 193.75,-204.915"/>
</g>
<!-- 11&#45;&gt;12 -->
<g id="edge21" class="edge"><title>11&#45;&gt;12</title>
<path fill="none" stroke="black" d="M246.051,-239.811C253.331,-230.546 262.78,-218.52 270.972,-208.094"/>
<polygon fill="black" stroke="black" points="273.78,-210.185 277.206,-200.159 268.276,-205.86 273.78,-210.185"/>
</g>
<!-- 12&#45;&gt;9 -->
<g id="edge22" class="edge"><title>12&#45;&gt;9</title>
<path fill="none" stroke="black" d="M290.207,-202.189C291.743,-226.424 294.561,-270.888 296.386,-299.679"/>
<polygon fill="black" stroke="black" points="292.906,-300.113 297.032,-309.871 299.892,-299.67 292.906,-300.113"/>
</g>
</g>
</svg>
