<?xml version="1.0" encoding="UTF-8" standalone="no"?>
<!DOCTYPE svg PUBLIC "-//W3C//DTD SVG 1.1//EN"
 "http://www.w3.org/Graphics/SVG/1.1/DTD/svg11.dtd">
<!-- Generated by graphviz version 2.38.0 (20140413.2041)
 -->
<!-- Title: %3 Pages: 1 -->
<svg width="414pt" height="530pt"
 viewBox="0.00 0.00 414.00 530.00" xmlns="http://www.w3.org/2000/svg" xmlns:xlink="http://www.w3.org/1999/xlink">
<g id="graph0" class="graph" transform="scale(1 1) rotate(0) translate(4 526)">
<title>%3</title>
<polygon fill="white" stroke="none" points="-4,4 -4,-526 410,-526 410,4 -4,4"/>
<text text-anchor="middle" x="203" y="-6.8" font-family="Times,serif" font-size="14.00">Strongly Connected Components of a Directed Graph</text>
<g id="clust1" class="cluster"><title>clusterOne</title>
<polygon fill="lightgrey" stroke="lightgrey" points="126,-246 126,-298 196,-298 196,-246 126,-246"/>
</g>
<g id="clust2" class="cluster"><title>clusterTwo</title>
<polygon fill="lightgrey" stroke="lightgrey" points="8,-30 8,-370 118,-370 118,-30 8,-30"/>
</g>
<g id="clust3" class="cluster"><title>clusterThree</title>
<polygon fill="lightgrey" stroke="lightgrey" points="126,-318 126,-442 196,-442 196,-318 126,-318"/>
</g>
<g id="clust4" class="cluster"><title>clusterFour</title>
<polygon fill="lightgrey" stroke="lightgrey" points="167,-462 167,-514 237,-514 237,-462 167,-462"/>
</g>
<g id="clust5" class="cluster"><title>clusterFive</title>
<polygon fill="lightgrey" stroke="lightgrey" points="236,-174 236,-370 398,-370 398,-174 236,-174"/>
</g>
<!-- 1 -->
<g id="node1" class="node"><title>1</title>
<ellipse fill="none" stroke="black" cx="161" cy="-272" rx="27" ry="18"/>
<text text-anchor="middle" x="161" y="-267.8" font-family="Times,serif" font-size="14.00">1</text>
</g>
<!-- 0 -->
<g id="node2" class="node"><title>0</title>
<ellipse fill="none" stroke="black" cx="83" cy="-344" rx="27" ry="18"/>
<text text-anchor="middle" x="83" y="-339.8" font-family="Times,serif" font-size="14.00">0</text>
</g>
<!-- 0&#45;&gt;1 -->
<g id="edge1" class="edge"><title>0&#45;&gt;1</title>
<path fill="none" stroke="black" d="M98.4103,-329.17C109.734,-319.008 125.309,-305.03 138.089,-293.561"/>
<polygon fill="black" stroke="black" points="140.517,-296.085 145.622,-286.801 135.842,-290.875 140.517,-296.085"/>
</g>
<!-- 5 -->
<g id="node6" class="node"><title>5</title>
<ellipse fill="none" stroke="black" cx="43" cy="-272" rx="27" ry="18"/>
<text text-anchor="middle" x="43" y="-267.8" font-family="Times,serif" font-size="14.00">5</text>
</g>
<!-- 0&#45;&gt;5 -->
<g id="edge2" class="edge"><title>0&#45;&gt;5</title>
<path fill="none" stroke="black" d="M73.7227,-326.765C68.8256,-318.195 62.7109,-307.494 57.2288,-297.9"/>
<polygon fill="black" stroke="black" points="60.2273,-296.093 52.227,-289.147 54.1496,-299.566 60.2273,-296.093"/>
</g>
<!-- 2 -->
<g id="node3" class="node"><title>2</title>
<ellipse fill="none" stroke="black" cx="63" cy="-128" rx="27" ry="18"/>
<text text-anchor="middle" x="63" y="-123.8" font-family="Times,serif" font-size="14.00">2</text>
</g>
<!-- 2&#45;&gt;0 -->
<g id="edge3" class="edge"><title>2&#45;&gt;0</title>
<path fill="none" stroke="black" d="M55.5142,-145.726C52.1924,-154.044 48.6631,-164.358 47,-174 43.676,-193.271 38.9193,-200.192 47,-218 54.809,-235.209 70.8381,-228.955 79,-246 89.428,-267.777 89.4378,-295.556 87.4238,-315.8"/>
<polygon fill="black" stroke="black" points="83.9277,-315.557 86.1905,-325.907 90.8761,-316.405 83.9277,-315.557"/>
</g>
<!-- 3 -->
<g id="node4" class="node"><title>3</title>
<ellipse fill="none" stroke="black" cx="63" cy="-56" rx="27" ry="18"/>
<text text-anchor="middle" x="63" y="-51.8" font-family="Times,serif" font-size="14.00">3</text>
</g>
<!-- 2&#45;&gt;3 -->
<g id="edge4" class="edge"><title>2&#45;&gt;3</title>
<path fill="none" stroke="black" d="M57.1601,-110.411C56.2975,-102.507 56.0481,-92.8518 56.4119,-83.9352"/>
<polygon fill="black" stroke="black" points="59.9033,-84.1791 57.1206,-73.9562 52.9209,-83.6831 59.9033,-84.1791"/>
</g>
<!-- 3&#45;&gt;2 -->
<g id="edge5" class="edge"><title>3&#45;&gt;2</title>
<path fill="none" stroke="black" d="M68.8794,-73.9562C69.7139,-81.8272 69.9485,-91.3739 69.5831,-100.187"/>
<polygon fill="black" stroke="black" points="66.0742,-100.184 68.8399,-110.411 73.0558,-100.691 66.0742,-100.184"/>
</g>
<!-- 3&#45;&gt;5 -->
<g id="edge6" class="edge"><title>3&#45;&gt;5</title>
<path fill="none" stroke="black" d="M49.2496,-71.9312C41.0392,-81.8997 31.381,-95.7531 27,-110 12.9199,-155.788 24.7004,-212.021 34.1345,-244.462"/>
<polygon fill="black" stroke="black" points="30.8138,-245.572 37.0794,-254.116 37.5092,-243.53 30.8138,-245.572"/>
</g>
<!-- 4 -->
<g id="node5" class="node"><title>4</title>
<ellipse fill="none" stroke="black" cx="83" cy="-200" rx="27" ry="18"/>
<text text-anchor="middle" x="83" y="-195.8" font-family="Times,serif" font-size="14.00">4</text>
</g>
<!-- 4&#45;&gt;2 -->
<g id="edge7" class="edge"><title>4&#45;&gt;2</title>
<path fill="none" stroke="black" d="M78.1586,-182.055C75.8984,-174.145 73.1542,-164.54 70.6251,-155.688"/>
<polygon fill="black" stroke="black" points="73.9095,-154.443 67.7969,-145.789 67.1788,-156.366 73.9095,-154.443"/>
</g>
<!-- 4&#45;&gt;3 -->
<g id="edge8" class="edge"><title>4&#45;&gt;3</title>
<path fill="none" stroke="black" d="M90.514,-182.643C97.7661,-164.575 106.614,-134.759 99,-110 95.7142,-99.3149 89.4601,-88.851 83.0746,-80.0814"/>
<polygon fill="black" stroke="black" points="85.646,-77.6861 76.7504,-71.9312 80.1156,-81.9774 85.646,-77.6861"/>
</g>
<!-- 5&#45;&gt;4 -->
<g id="edge9" class="edge"><title>5&#45;&gt;4</title>
<path fill="none" stroke="black" d="M52.2773,-254.765C57.1744,-246.195 63.2891,-235.494 68.7712,-225.9"/>
<polygon fill="black" stroke="black" points="71.8504,-227.566 73.773,-217.147 65.7727,-224.093 71.8504,-227.566"/>
</g>
<!-- 6 -->
<g id="node7" class="node"><title>6</title>
<ellipse fill="none" stroke="black" cx="161" cy="-416" rx="27" ry="18"/>
<text text-anchor="middle" x="161" y="-411.8" font-family="Times,serif" font-size="14.00">6</text>
</g>
<!-- 6&#45;&gt;0 -->
<g id="edge10" class="edge"><title>6&#45;&gt;0</title>
<path fill="none" stroke="black" d="M145.59,-401.17C134.266,-391.008 118.691,-377.03 105.911,-365.561"/>
<polygon fill="black" stroke="black" points="108.158,-362.875 98.3783,-358.801 103.483,-368.085 108.158,-362.875"/>
</g>
<!-- 6&#45;&gt;4 -->
<g id="edge11" class="edge"><title>6&#45;&gt;4</title>
<path fill="none" stroke="black" d="M176.374,-400.713C184.068,-392.54 192.651,-381.619 197,-370 216.327,-318.372 231.21,-291.442 200,-246 182.137,-219.991 146.982,-209.009 119.85,-204.375"/>
<polygon fill="black" stroke="black" points="120.304,-200.904 109.897,-202.891 119.272,-207.827 120.304,-200.904"/>
</g>
<!-- 8 -->
<g id="node8" class="node"><title>8</title>
<ellipse fill="none" stroke="black" cx="161" cy="-344" rx="27" ry="18"/>
<text text-anchor="middle" x="161" y="-339.8" font-family="Times,serif" font-size="14.00">8</text>
</g>
<!-- 6&#45;&gt;8 -->
<g id="edge12" class="edge"><title>6&#45;&gt;8</title>
<path fill="none" stroke="black" d="M155.16,-398.411C154.297,-390.507 154.048,-380.852 154.412,-371.935"/>
<polygon fill="black" stroke="black" points="157.903,-372.179 155.121,-361.956 150.921,-371.683 157.903,-372.179"/>
</g>
<!-- 9 -->
<g id="node10" class="node"><title>9</title>
<ellipse fill="none" stroke="black" cx="271" cy="-344" rx="27" ry="18"/>
<text text-anchor="middle" x="271" y="-339.8" font-family="Times,serif" font-size="14.00">9</text>
</g>
<!-- 6&#45;&gt;9 -->
<g id="edge15" class="edge"><title>6&#45;&gt;9</title>
<path fill="none" stroke="black" d="M180.161,-402.807C197.669,-391.665 223.759,-375.062 243.493,-362.504"/>
<polygon fill="black" stroke="black" points="245.501,-365.375 252.059,-357.053 241.743,-359.469 245.501,-365.375"/>
</g>
<!-- 8&#45;&gt;6 -->
<g id="edge13" class="edge"><title>8&#45;&gt;6</title>
<path fill="none" stroke="black" d="M166.879,-361.956C167.714,-369.827 167.948,-379.374 167.583,-388.187"/>
<polygon fill="black" stroke="black" points="164.074,-388.184 166.84,-398.411 171.056,-388.691 164.074,-388.184"/>
</g>
<!-- 7 -->
<g id="node9" class="node"><title>7</title>
<ellipse fill="none" stroke="black" cx="202" cy="-488" rx="27" ry="18"/>
<text text-anchor="middle" x="202" y="-483.8" font-family="Times,serif" font-size="14.00">7</text>
</g>
<!-- 7&#45;&gt;6 -->
<g id="edge14" class="edge"><title>7&#45;&gt;6</title>
<path fill="none" stroke="black" d="M192.491,-470.765C187.471,-462.195 181.204,-451.494 175.585,-441.9"/>
<polygon fill="black" stroke="black" points="178.532,-440.007 170.458,-433.147 172.492,-443.545 178.532,-440.007"/>
</g>
<!-- 7&#45;&gt;9 -->
<g id="edge16" class="edge"><title>7&#45;&gt;9</title>
<path fill="none" stroke="black" d="M209.915,-470.711C221.81,-446.232 244.401,-399.739 258.527,-370.67"/>
<polygon fill="black" stroke="black" points="261.742,-372.061 262.965,-361.537 255.446,-369.001 261.742,-372.061"/>
</g>
<!-- 10 -->
<g id="node11" class="node"><title>10</title>
<ellipse fill="none" stroke="black" cx="343" cy="-272" rx="27" ry="18"/>
<text text-anchor="middle" x="343" y="-267.8" font-family="Times,serif" font-size="14.00">10</text>
</g>
<!-- 9&#45;&gt;10 -->
<g id="edge17" class="edge"><title>9&#45;&gt;10</title>
<path fill="none" stroke="black" d="M285.57,-328.834C295.75,-318.938 309.524,-305.546 321.031,-294.359"/>
<polygon fill="black" stroke="black" points="323.474,-296.865 328.204,-287.385 318.595,-291.846 323.474,-296.865"/>
</g>
<!-- 11 -->
<g id="node12" class="node"><title>11</title>
<ellipse fill="none" stroke="black" cx="271" cy="-272" rx="27" ry="18"/>
<text text-anchor="middle" x="271" y="-267.8" font-family="Times,serif" font-size="14.00">11</text>
</g>
<!-- 9&#45;&gt;11 -->
<g id="edge18" class="edge"><title>9&#45;&gt;11</title>
<path fill="none" stroke="black" d="M271,-325.697C271,-317.983 271,-308.712 271,-300.112"/>
<polygon fill="black" stroke="black" points="274.5,-300.104 271,-290.104 267.5,-300.104 274.5,-300.104"/>
</g>
<!-- 12 -->
<g id="node13" class="node"><title>12</title>
<ellipse fill="none" stroke="black" cx="343" cy="-200" rx="27" ry="18"/>
<text text-anchor="middle" x="343" y="-195.8" font-family="Times,serif" font-size="14.00">12</text>
</g>
<!-- 10&#45;&gt;12 -->
<g id="edge19" class="edge"><title>10&#45;&gt;12</title>
<path fill="none" stroke="black" d="M343,-253.697C343,-245.983 343,-236.712 343,-228.112"/>
<polygon fill="black" stroke="black" points="346.5,-228.104 343,-218.104 339.5,-228.104 346.5,-228.104"/>
</g>
<!-- 11&#45;&gt;4 -->
<g id="edge20" class="edge"><title>11&#45;&gt;4</title>
<path fill="none" stroke="black" d="M252.761,-258.528C245.841,-254.162 237.757,-249.485 230,-246 193.196,-229.462 148.597,-216.764 118.244,-209.138"/>
<polygon fill="black" stroke="black" points="118.684,-205.642 108.138,-206.654 117.014,-212.439 118.684,-205.642"/>
</g>
<!-- 11&#45;&gt;12 -->
<g id="edge21" class="edge"><title>11&#45;&gt;12</title>
<path fill="none" stroke="black" d="M285.57,-256.834C295.75,-246.938 309.524,-233.546 321.031,-222.359"/>
<polygon fill="black" stroke="black" points="323.474,-224.865 328.204,-215.385 318.595,-219.846 323.474,-224.865"/>
</g>
<!-- 12&#45;&gt;9 -->
<g id="edge22" class="edge"><title>12&#45;&gt;9</title>
<path fill="none" stroke="black" d="M358.568,-215.217C366.319,-223.37 374.894,-234.293 379,-246 386.65,-267.808 391.82,-278.77 379,-298 363.226,-321.661 332.405,-332.901 307.712,-338.229"/>
<polygon fill="black" stroke="black" points="306.731,-334.854 297.566,-340.17 308.046,-341.729 306.731,-334.854"/>
</g>
</g>
</svg>
