<?xml version="1.0" encoding="UTF-8" standalone="no"?>
<!DOCTYPE svg PUBLIC "-//W3C//DTD SVG 1.1//EN"
 "http://www.w3.org/Graphics/SVG/1.1/DTD/svg11.dtd">
<!-- Generated by graphviz version 2.38.0 (20140413.2041)
 -->
<!-- Title: %3 Pages: 1 -->
<svg width="558pt" height="242pt"
 viewBox="0.00 0.00 558.00 242.00" xmlns="http://www.w3.org/2000/svg" xmlns:xlink="http://www.w3.org/1999/xlink">
<g id="graph0" class="graph" transform="scale(1 1) rotate(0) translate(4 238)">
<title>%3</title>
<polygon fill="white" stroke="none" points="-4,4 -4,-238 554,-238 554,4 -4,4"/>
<text text-anchor="middle" x="275" y="-6.8" font-family="Times,serif" font-size="14.00">Connected Components of an Undirected Graph</text>
<g id="clust1" class="cluster"><title>clusterOne</title>
<polygon fill="lightgrey" stroke="lightgrey" points="8,-30 8,-226 294,-226 294,-30 8,-30"/>
</g>
<g id="clust2" class="cluster"><title>clusterTree</title>
<polygon fill="lightgrey" stroke="lightgrey" points="302,-102 302,-226 372,-226 372,-102 302,-102"/>
</g>
<g id="clust3" class="cluster"><title>clusterThree</title>
<polygon fill="lightgrey" stroke="lightgrey" points="380,-30 380,-226 542,-226 542,-30 380,-30"/>
</g>
<!-- 0 -->
<g id="node1" class="node"><title>0</title>
<ellipse fill="none" stroke="black" cx="174" cy="-128" rx="27" ry="18"/>
<text text-anchor="middle" x="174" y="-123.8" font-family="Times,serif" font-size="14.00">0</text>
</g>
<!-- 1 -->
<g id="node2" class="node"><title>1</title>
<ellipse fill="none" stroke="black" cx="187" cy="-56" rx="27" ry="18"/>
<text text-anchor="middle" x="187" y="-51.8" font-family="Times,serif" font-size="14.00">1</text>
</g>
<!-- 0&#45;&#45;1 -->
<g id="edge1" class="edge"><title>0&#45;&#45;1</title>
<path fill="none" stroke="black" d="M177.147,-110.055C179.161,-99.2111 181.766,-85.183 183.792,-74.2753"/>
</g>
<!-- 2 -->
<g id="node3" class="node"><title>2</title>
<ellipse fill="none" stroke="black" cx="259" cy="-56" rx="27" ry="18"/>
<text text-anchor="middle" x="259" y="-51.8" font-family="Times,serif" font-size="14.00">2</text>
</g>
<!-- 0&#45;&#45;2 -->
<g id="edge2" class="edge"><title>0&#45;&#45;2</title>
<path fill="none" stroke="black" d="M190.389,-113.503C205.44,-101.108 227.626,-82.8376 242.661,-70.4553"/>
</g>
<!-- 5 -->
<g id="node4" class="node"><title>5</title>
<ellipse fill="none" stroke="black" cx="43" cy="-56" rx="27" ry="18"/>
<text text-anchor="middle" x="43" y="-51.8" font-family="Times,serif" font-size="14.00">5</text>
</g>
<!-- 0&#45;&#45;5 -->
<g id="edge3" class="edge"><title>0&#45;&#45;5</title>
<path fill="none" stroke="black" d="M153.531,-116.062C128.921,-102.912 87.8713,-80.977 63.325,-67.8607"/>
</g>
<!-- 6 -->
<g id="node5" class="node"><title>6</title>
<ellipse fill="none" stroke="black" cx="115" cy="-56" rx="27" ry="18"/>
<text text-anchor="middle" x="115" y="-51.8" font-family="Times,serif" font-size="14.00">6</text>
</g>
<!-- 0&#45;&#45;6 -->
<g id="edge4" class="edge"><title>0&#45;&#45;6</title>
<path fill="none" stroke="black" d="M161.198,-111.811C151.302,-100.07 137.667,-83.8932 127.777,-72.1593"/>
</g>
<!-- 3 -->
<g id="node6" class="node"><title>3</title>
<ellipse fill="none" stroke="black" cx="66" cy="-200" rx="27" ry="18"/>
<text text-anchor="middle" x="66" y="-195.8" font-family="Times,serif" font-size="14.00">3</text>
</g>
<!-- 3&#45;&#45;5 -->
<g id="edge6" class="edge"><title>3&#45;&#45;5</title>
<path fill="none" stroke="black" d="M61.2214,-181.933C58.4777,-171.603 55.1591,-158.126 53,-146 48.5844,-121.201 45.7528,-92.1483 44.2686,-74.156"/>
</g>
<!-- 4 -->
<g id="node7" class="node"><title>4</title>
<ellipse fill="none" stroke="black" cx="89" cy="-128" rx="27" ry="18"/>
<text text-anchor="middle" x="89" y="-123.8" font-family="Times,serif" font-size="14.00">4</text>
</g>
<!-- 3&#45;&#45;4 -->
<g id="edge5" class="edge"><title>3&#45;&#45;4</title>
<path fill="none" stroke="black" d="M71.5677,-182.055C75.1838,-171.049 79.8777,-156.764 83.4836,-145.789"/>
</g>
<!-- 4&#45;&#45;5 -->
<g id="edge7" class="edge"><title>4&#45;&#45;5</title>
<path fill="none" stroke="black" d="M78.5619,-111.116C71.0337,-99.66 60.9155,-84.2627 53.3968,-72.8212"/>
</g>
<!-- 4&#45;&#45;6 -->
<g id="edge8" class="edge"><title>4&#45;&#45;6</title>
<path fill="none" stroke="black" d="M95.1616,-110.411C99.2462,-99.4141 104.59,-85.0274 108.702,-73.9562"/>
</g>
<!-- 7 -->
<g id="node8" class="node"><title>7</title>
<ellipse fill="none" stroke="black" cx="337" cy="-200" rx="27" ry="18"/>
<text text-anchor="middle" x="337" y="-195.8" font-family="Times,serif" font-size="14.00">7</text>
</g>
<!-- 8 -->
<g id="node9" class="node"><title>8</title>
<ellipse fill="none" stroke="black" cx="337" cy="-128" rx="27" ry="18"/>
<text text-anchor="middle" x="337" y="-123.8" font-family="Times,serif" font-size="14.00">8</text>
</g>
<!-- 7&#45;&#45;8 -->
<g id="edge9" class="edge"><title>7&#45;&#45;8</title>
<path fill="none" stroke="black" d="M337,-181.697C337,-170.846 337,-156.917 337,-146.104"/>
</g>
<!-- 9 -->
<g id="node10" class="node"><title>9</title>
<ellipse fill="none" stroke="black" cx="487" cy="-200" rx="27" ry="18"/>
<text text-anchor="middle" x="487" y="-195.8" font-family="Times,serif" font-size="14.00">9</text>
</g>
<!-- 10 -->
<g id="node11" class="node"><title>10</title>
<ellipse fill="none" stroke="black" cx="415" cy="-128" rx="27" ry="18"/>
<text text-anchor="middle" x="415" y="-123.8" font-family="Times,serif" font-size="14.00">10</text>
</g>
<!-- 9&#45;&#45;10 -->
<g id="edge10" class="edge"><title>9&#45;&#45;10</title>
<path fill="none" stroke="black" d="M472.43,-184.834C460.02,-172.77 442.269,-155.512 429.796,-143.385"/>
</g>
<!-- 11 -->
<g id="node12" class="node"><title>11</title>
<ellipse fill="none" stroke="black" cx="487" cy="-128" rx="27" ry="18"/>
<text text-anchor="middle" x="487" y="-123.8" font-family="Times,serif" font-size="14.00">11</text>
</g>
<!-- 9&#45;&#45;11 -->
<g id="edge11" class="edge"><title>9&#45;&#45;11</title>
<path fill="none" stroke="black" d="M487,-181.697C487,-170.846 487,-156.917 487,-146.104"/>
</g>
<!-- 12 -->
<g id="node13" class="node"><title>12</title>
<ellipse fill="none" stroke="black" cx="497" cy="-56" rx="27" ry="18"/>
<text text-anchor="middle" x="497" y="-51.8" font-family="Times,serif" font-size="14.00">12</text>
</g>
<!-- 9&#45;&#45;12 -->
<g id="edge12" class="edge"><title>9&#45;&#45;12</title>
<path fill="none" stroke="black" d="M500.75,-184.069C508.961,-174.1 518.619,-160.247 523,-146 528.748,-127.308 528.064,-120.888 523,-102 520.149,-91.3678 514.111,-80.6493 508.57,-72.3416"/>
</g>
<!-- 11&#45;&#45;12 -->
<g id="edge13" class="edge"><title>11&#45;&#45;12</title>
<path fill="none" stroke="black" d="M489.421,-110.055C490.97,-99.2111 492.974,-85.183 494.532,-74.2753"/>
</g>
</g>
</svg>
