<?xml version="1.0" encoding="UTF-8" standalone="no"?>
<!DOCTYPE svg PUBLIC "-//W3C//DTD SVG 1.1//EN"
 "http://www.w3.org/Graphics/SVG/1.1/DTD/svg11.dtd">
<!-- Generated by graphviz version 2.38.0 (20140413.2041)
 -->
<!-- Title: %3 Pages: 1 -->
<svg width="512pt" height="210pt"
 viewBox="0.00 0.00 512.00 210.00" xmlns="http://www.w3.org/2000/svg" xmlns:xlink="http://www.w3.org/1999/xlink">
<g id="graph0" class="graph" transform="scale(1 1) rotate(0) translate(4 206)">
<title>%3</title>
<polygon fill="white" stroke="none" points="-4,4 -4,-206 508,-206 508,4 -4,4"/>
<text text-anchor="middle" x="252" y="-6.8" font-family="Times,serif" font-size="14.00">An Undirected Graph</text>
<!-- 0 -->
<g id="node1" class="node"><title>0</title>
<ellipse fill="none" stroke="black" cx="107" cy="-112" rx="27" ry="18"/>
<text text-anchor="middle" x="107" y="-107.8" font-family="Times,serif" font-size="14.00">0</text>
</g>
<!-- 1 -->
<g id="node2" class="node"><title>1</title>
<ellipse fill="none" stroke="black" cx="27" cy="-40" rx="27" ry="18"/>
<text text-anchor="middle" x="27" y="-35.8" font-family="Times,serif" font-size="14.00">1</text>
</g>
<!-- 0&#45;&#45;1 -->
<g id="edge1" class="edge"><title>0&#45;&#45;1</title>
<path fill="none" stroke="black" d="M91.1946,-97.1703C77.1695,-84.8983 56.7878,-67.0643 42.7726,-54.801"/>
</g>
<!-- 2 -->
<g id="node3" class="node"><title>2</title>
<ellipse fill="none" stroke="black" cx="99" cy="-40" rx="27" ry="18"/>
<text text-anchor="middle" x="99" y="-35.8" font-family="Times,serif" font-size="14.00">2</text>
</g>
<!-- 0&#45;&#45;2 -->
<g id="edge2" class="edge"><title>0&#45;&#45;2</title>
<path fill="none" stroke="black" d="M105.022,-93.6966C103.782,-82.8463 102.19,-68.9167 100.955,-58.1043"/>
</g>
<!-- 5 -->
<g id="node4" class="node"><title>5</title>
<ellipse fill="none" stroke="black" cx="243" cy="-40" rx="27" ry="18"/>
<text text-anchor="middle" x="243" y="-35.8" font-family="Times,serif" font-size="14.00">5</text>
</g>
<!-- 0&#45;&#45;5 -->
<g id="edge3" class="edge"><title>0&#45;&#45;5</title>
<path fill="none" stroke="black" d="M127.655,-100.369C153.217,-87.2117 196.499,-64.9344 222.15,-51.7315"/>
</g>
<!-- 6 -->
<g id="node5" class="node"><title>6</title>
<ellipse fill="none" stroke="black" cx="171" cy="-40" rx="27" ry="18"/>
<text text-anchor="middle" x="171" y="-35.8" font-family="Times,serif" font-size="14.00">6</text>
</g>
<!-- 0&#45;&#45;6 -->
<g id="edge4" class="edge"><title>0&#45;&#45;6</title>
<path fill="none" stroke="black" d="M120.573,-96.1548C131.434,-84.2756 146.591,-67.6974 157.447,-55.8238"/>
</g>
<!-- 3 -->
<g id="node6" class="node"><title>3</title>
<ellipse fill="none" stroke="black" cx="211" cy="-184" rx="27" ry="18"/>
<text text-anchor="middle" x="211" y="-179.8" font-family="Times,serif" font-size="14.00">3</text>
</g>
<!-- 3&#45;&#45;5 -->
<g id="edge6" class="edge"><title>3&#45;&#45;5</title>
<path fill="none" stroke="black" d="M215.347,-165.845C217.938,-155.484 221.247,-142.005 224,-130 229.721,-105.052 235.81,-76.0388 239.51,-58.0957"/>
</g>
<!-- 4 -->
<g id="node7" class="node"><title>4</title>
<ellipse fill="none" stroke="black" cx="188" cy="-112" rx="27" ry="18"/>
<text text-anchor="middle" x="188" y="-107.8" font-family="Times,serif" font-size="14.00">4</text>
</g>
<!-- 3&#45;&#45;4 -->
<g id="edge5" class="edge"><title>3&#45;&#45;4</title>
<path fill="none" stroke="black" d="M205.432,-166.055C201.816,-155.049 197.122,-140.764 193.516,-129.789"/>
</g>
<!-- 4&#45;&#45;5 -->
<g id="edge7" class="edge"><title>4&#45;&#45;5</title>
<path fill="none" stroke="black" d="M199.934,-95.811C209.16,-84.0697 221.87,-67.8932 231.089,-56.1593"/>
</g>
<!-- 4&#45;&#45;6 -->
<g id="edge8" class="edge"><title>4&#45;&#45;6</title>
<path fill="none" stroke="black" d="M183.885,-94.055C181.251,-83.2111 177.844,-69.183 175.195,-58.2753"/>
</g>
<!-- 7 -->
<g id="node8" class="node"><title>7</title>
<ellipse fill="none" stroke="black" cx="306" cy="-184" rx="27" ry="18"/>
<text text-anchor="middle" x="306" y="-179.8" font-family="Times,serif" font-size="14.00">7</text>
</g>
<!-- 8 -->
<g id="node9" class="node"><title>8</title>
<ellipse fill="none" stroke="black" cx="306" cy="-112" rx="27" ry="18"/>
<text text-anchor="middle" x="306" y="-107.8" font-family="Times,serif" font-size="14.00">8</text>
</g>
<!-- 7&#45;&#45;8 -->
<g id="edge9" class="edge"><title>7&#45;&#45;8</title>
<path fill="none" stroke="black" d="M306,-165.697C306,-154.846 306,-140.917 306,-130.104"/>
</g>
<!-- 9 -->
<g id="node10" class="node"><title>9</title>
<ellipse fill="none" stroke="black" cx="450" cy="-184" rx="27" ry="18"/>
<text text-anchor="middle" x="450" y="-179.8" font-family="Times,serif" font-size="14.00">9</text>
</g>
<!-- 10 -->
<g id="node11" class="node"><title>10</title>
<ellipse fill="none" stroke="black" cx="378" cy="-112" rx="27" ry="18"/>
<text text-anchor="middle" x="378" y="-107.8" font-family="Times,serif" font-size="14.00">10</text>
</g>
<!-- 9&#45;&#45;10 -->
<g id="edge10" class="edge"><title>9&#45;&#45;10</title>
<path fill="none" stroke="black" d="M435.43,-168.834C423.02,-156.77 405.269,-139.512 392.796,-127.385"/>
</g>
<!-- 11 -->
<g id="node12" class="node"><title>11</title>
<ellipse fill="none" stroke="black" cx="450" cy="-112" rx="27" ry="18"/>
<text text-anchor="middle" x="450" y="-107.8" font-family="Times,serif" font-size="14.00">11</text>
</g>
<!-- 9&#45;&#45;11 -->
<g id="edge11" class="edge"><title>9&#45;&#45;11</title>
<path fill="none" stroke="black" d="M450,-165.697C450,-154.846 450,-140.917 450,-130.104"/>
</g>
<!-- 12 -->
<g id="node13" class="node"><title>12</title>
<ellipse fill="none" stroke="black" cx="477" cy="-40" rx="27" ry="18"/>
<text text-anchor="middle" x="477" y="-35.8" font-family="Times,serif" font-size="14.00">12</text>
</g>
<!-- 9&#45;&#45;12 -->
<g id="edge12" class="edge"><title>9&#45;&#45;12</title>
<path fill="none" stroke="black" d="M463.75,-168.069C471.961,-158.1 481.619,-144.247 486,-130 493.486,-105.656 487.687,-75.9768 482.552,-57.7893"/>
</g>
<!-- 11&#45;&#45;12 -->
<g id="edge13" class="edge"><title>11&#45;&#45;12</title>
<path fill="none" stroke="black" d="M456.399,-94.411C460.64,-83.4141 466.189,-69.0274 470.46,-57.9562"/>
</g>
</g>
</svg>
